<svg width="20" height="21" viewBox="0 0 20 21" fill="none" xmlns="http://www.w3.org/2000/svg">
<path d="M19.2694 6.73801C18.782 5.53184 18.0495 4.40098 17.0741 3.42582C16.0989 2.45047 14.968 1.71789 13.7618 1.23051C12.5555 0.742969 11.2739 0.5 9.99281 0.5C8.71363 0.5 7.43441 0.744102 6.23066 1.23219C5.02703 1.72012 3.89891 2.45266 2.92586 3.42586C1.95262 4.39895 1.22008 5.52711 0.732188 6.73082C0.244102 7.93453 0 9.21375 0 10.493C0 11.7741 0.243047 13.0556 0.730508 14.262C1.21789 15.4681 1.95047 16.599 2.92582 17.5742C3.90098 18.5495 5.03184 19.2821 6.23801 19.7695C7.44434 20.257 8.7259 20.5 10.0069 20.5C11.2861 20.5 12.5654 20.2559 13.7692 19.7679C14.9729 19.28 16.1011 18.5475 17.0742 17.5742C18.0474 16.6011 18.78 15.4729 19.2679 14.2692C19.7559 13.0654 20 11.7862 20 10.5069C20 9.2259 19.757 7.94434 19.2694 6.73801ZM18.0317 13.768C17.609 14.8103 16.9763 15.7855 16.1309 16.6309C15.2855 17.4762 14.3103 18.1089 13.268 18.5317C12.2259 18.9543 11.1165 19.1661 10.0069 19.1661C8.89453 19.1661 7.78242 18.9549 6.73785 18.5327C5.69316 18.1104 4.71598 17.4777 3.86906 16.631C3.02227 15.784 2.38961 14.8068 1.9673 13.7621C1.54512 12.7175 1.33395 11.6054 1.33398 10.493C1.33395 9.38344 1.54582 8.27418 1.96836 7.23199C2.39105 6.18969 3.02375 5.21449 3.8691 4.36906C4.71453 3.52375 5.68969 2.89105 6.73195 2.46832C7.77406 2.04574 8.88332 1.83387 9.99289 1.83387C11.1053 1.83387 12.2175 2.045 13.2621 2.46719C14.3068 2.88949 15.284 3.52215 16.131 4.36898C16.9778 5.21594 17.6104 6.19309 18.0328 7.23777C18.455 8.28234 18.6661 9.39445 18.6661 10.5068C18.6661 11.6165 18.4543 12.7258 18.0317 13.768Z" fill="currentColor"/>
<path d="M10.9235 10.5005L14.1536 7.27031C14.4085 7.01543 14.4085 6.60227 14.1536 6.34738C13.8988 6.09254 13.4856 6.09254 13.2307 6.34738L10.0005 9.57762L6.77033 6.34742C6.51544 6.09258 6.10228 6.09258 5.8474 6.34742C5.59251 6.60227 5.59255 7.01547 5.8474 7.27035L9.07759 10.5005L5.8474 13.7307C5.59255 13.9855 5.59255 14.3988 5.8474 14.6537C6.10228 14.9085 6.51544 14.9085 6.77033 14.6537L10.0005 11.4234L13.2307 14.6536C13.4856 14.9085 13.8988 14.9085 14.1536 14.6536C14.4085 14.3988 14.4085 13.9856 14.1536 13.7307L10.9235 10.5005Z" fill="currentColor"/>
</svg>
