<svg width="16" height="16" viewBox="0 0 16 16" fill="none" xmlns="http://www.w3.org/2000/svg">
<path d="M7.99961 12.2871C8.22052 12.2871 8.39961 12.4662 8.39961 12.6871V13.6246C8.39961 13.8455 8.22052 14.0246 7.99961 14.0246C7.7787 14.0246 7.59961 13.8455 7.59961 13.6246V12.6871C7.59961 12.4662 7.7787 12.2871 7.99961 12.2871Z" fill="currentColor"/>
<path d="M3.69062 11.6457C3.87369 11.4626 4.17084 11.4626 4.35391 11.6457C4.53681 11.8288 4.53686 12.1256 4.35391 12.3086C4.17084 12.4917 3.87369 12.4917 3.69062 12.3086C3.50767 12.1256 3.50772 11.8288 3.69062 11.6457Z" fill="currentColor"/>
<path d="M11.6453 11.6457C11.8284 11.4626 12.1255 11.4626 12.3086 11.6457C12.4915 11.8288 12.4915 12.1256 12.3086 12.3086C12.1255 12.4917 11.8284 12.4917 11.6453 12.3086C11.4624 12.1256 11.4624 11.8288 11.6453 11.6457Z" fill="currentColor"/>
<path d="M7.99961 4.78711C8.22052 4.78711 8.39961 4.9662 8.39961 5.18711V7.83398L11.0949 10.5293L11.1223 10.5598C11.2504 10.7169 11.2414 10.9485 11.0949 11.0949C10.9485 11.2414 10.7169 11.2504 10.5598 11.1223L10.5293 11.0949L7.7168 8.28242C7.65114 8.21676 7.61064 8.13066 7.60156 8.03906L7.59961 7.99961V5.18711C7.59961 4.9662 7.7787 4.78711 7.99961 4.78711Z" fill="currentColor"/>
<path d="M3.31211 7.59961C3.53302 7.59961 3.71211 7.7787 3.71211 7.99961C3.71211 8.22052 3.53302 8.39961 3.31211 8.39961H2.37461C2.1537 8.39961 1.97461 8.22052 1.97461 7.99961C1.97461 7.7787 2.1537 7.59961 2.37461 7.59961H3.31211Z" fill="currentColor"/>
<path d="M13.6246 7.59961C13.8455 7.59961 14.0246 7.7787 14.0246 7.99961C14.0246 8.22052 13.8455 8.39961 13.6246 8.39961H12.6871C12.4662 8.39961 12.2871 8.22052 12.2871 7.99961C12.2871 7.7787 12.4662 7.59961 12.6871 7.59961H13.6246Z" fill="currentColor"/>
<path d="M3.69062 3.69062C3.87369 3.50756 4.17087 3.50756 4.35391 3.69062C4.53686 3.87365 4.53681 4.17046 4.35391 4.35352C4.17087 4.53658 3.87369 4.53658 3.69062 4.35352C3.50772 4.17046 3.50767 3.87365 3.69062 3.69062Z" fill="currentColor"/>
<path d="M11.6453 3.69062C11.8283 3.50756 12.1255 3.50756 12.3086 3.69062C12.4915 3.87365 12.4915 4.17046 12.3086 4.35352C12.1255 4.53658 11.8283 4.53658 11.6453 4.35352C11.4624 4.17046 11.4624 3.87365 11.6453 3.69062Z" fill="currentColor"/>
<path d="M7.99961 1.97461C8.22052 1.97461 8.39961 2.1537 8.39961 2.37461V3.31211C8.39961 3.53302 8.22052 3.71211 7.99961 3.71211C7.7787 3.71211 7.59961 3.53302 7.59961 3.31211V2.37461C7.59961 2.1537 7.7787 1.97461 7.99961 1.97461Z" fill="currentColor"/>
<path fill-rule="evenodd" clip-rule="evenodd" d="M7.99961 0.0683594C12.3626 0.0683598 15.9309 3.63657 15.9309 7.99961C15.9309 12.3626 12.3626 15.9309 7.99961 15.9309C3.63657 15.9309 0.0683594 12.3626 0.0683594 7.99961C0.0683598 3.63657 3.63657 0.0683594 7.99961 0.0683594ZM7.99961 0.868359C4.0784 0.868359 0.86836 4.0784 0.868359 7.99961C0.868359 11.9208 4.0784 15.1309 7.99961 15.1309C11.9208 15.1309 15.1309 11.9208 15.1309 7.99961C15.1309 4.0784 11.9208 0.86836 7.99961 0.868359Z" fill="currentColor"/>
</svg>
