<svg width="24" height="24" viewBox="0 0 24 24" fill="none" xmlns="http://www.w3.org/2000/svg">
<path d="M9.553 14.396C10.228 15.056 11.114 15.386 12 15.386C12.886 15.386 13.772 15.056 14.447 14.396L16.949 11.948C18.271 10.626 19 8.86805 19 6.99805C19 5.12805 18.271 3.37105 16.949 2.04805C15.628 0.726047 13.87 -0.00195312 12 -0.00195312C10.13 -0.00195312 8.372 0.726047 7.05 2.04805C4.321 4.77705 4.321 9.21805 7.058 11.955L9.553 14.395V14.396ZM8.464 3.46305C9.408 2.51905 10.664 1.99905 12 1.99905C13.336 1.99905 14.591 2.51905 15.535 3.46305C16.479 4.40705 17 5.66305 17 6.99905C17 8.33505 16.479 9.59005 15.543 10.527L13.049 12.967C12.471 13.531 11.529 13.531 10.951 12.967L8.464 10.535C6.515 8.58505 6.515 5.41205 8.464 3.46305ZM9 6.98905C9 5.33205 10.343 3.98905 12 3.98905C13.657 3.98905 15 5.33205 15 6.98905C15 8.64605 13.657 9.98905 12 9.98905C10.343 9.98905 9 8.64605 9 6.98905ZM24 16.766C24 17.118 23.815 17.443 23.515 17.623L13.654 23.54C13.144 23.846 12.572 23.999 12.001 23.999C11.43 23.999 10.857 23.846 10.348 23.54L0.485 17.624C0.184 17.443 0 17.118 0 16.767C0 16.416 0.185 16.09 0.485 15.91L4.714 13.373C5.189 13.088 5.803 13.242 6.086 13.716C6.37 14.19 6.217 14.804 5.743 15.088L2.943 16.768L11.376 21.828C11.761 22.058 12.239 22.058 12.624 21.828L21.057 16.768L18.257 15.088C17.783 14.804 17.63 14.19 17.914 13.716C18.198 13.242 18.811 13.088 19.286 13.373L23.515 15.91C23.816 16.091 24 16.415 24 16.766Z" fill="currentColor"/>
</svg>
