<svg width="20" height="18" viewBox="0 0 20 18" fill="none" xmlns="http://www.w3.org/2000/svg">
<path d="M17.542 1.14941C17.7423 1.08353 17.9569 1.07192 18.1631 1.11621C18.3691 1.16054 18.5594 1.25912 18.7148 1.40137C18.8702 1.54389 18.9848 1.72529 19.0469 1.92676C19.1089 2.12815 19.1165 2.34268 19.0684 2.54785L15.9053 15.9951C15.8109 16.3958 15.5217 16.7144 15.1318 16.8467C15.0086 16.8886 14.8792 16.91 14.749 16.9102H14.748C14.4787 16.91 14.2146 16.8181 13.999 16.6416L10.6641 13.9111L7.82227 16.04C7.6452 16.1726 7.43151 16.344 7.13086 16.2676C6.83297 16.1917 6.70112 15.9437 6.64844 15.6992L5.47852 10.2725L1.61133 8.58008C1.15739 8.38142 0.878213 7.93245 0.901367 7.4375C0.92465 6.94257 1.24429 6.52142 1.71484 6.36621L17.542 1.14941ZM2.2832 7.50195L5.99121 9.12402L14.1377 4.59863C14.2692 4.52557 14.423 4.50189 14.5703 4.53223C14.7176 4.56259 14.8495 4.64465 14.9414 4.76367C15.0331 4.88259 15.0791 5.03069 15.0713 5.18066C15.0634 5.33084 15.0014 5.47334 14.8975 5.58203L9.44141 11.2871L11.0791 12.6279H11.0801L14.707 15.5967L17.8154 2.38184L2.2832 7.50195ZM8.61621 13.2832L8.40039 14.0361L9.66113 13.0918L8.8584 12.4346L8.61621 13.2832ZM6.7373 10.1484L7.36816 13.0752L7.91309 11.1709L7.92285 11.1436C7.95195 11.0562 7.99998 10.9759 8.06348 10.9092L11.1191 7.71289L6.7373 10.1484Z" fill="currentColor" stroke="currentColor" stroke-width="0.2"/>
</svg>
