<svg width="20" height="20" viewBox="0 0 20 20" fill="none" xmlns="http://www.w3.org/2000/svg">
<path d="M16.4433 3.55667C14.7946 1.90788 12.603 1 10.2711 1H10.2703C9.11698 1.00014 7.99307 1.22342 6.93001 1.66386C5.86682 2.10426 4.91429 2.74104 4.09871 3.55667C2.45005 5.20529 1.54214 7.39735 1.54214 9.72891C1.54214 11.1193 1.87767 12.5012 2.51337 13.7323L1.04616 17.9239C0.942729 18.2196 1.01592 18.5409 1.23758 18.7624C1.39262 18.9176 1.59671 19 1.80648 19C1.89645 19 1.98736 18.9849 2.07606 18.9538L6.26764 17.4868C7.49881 18.1225 8.88059 18.458 10.2711 18.458C12.6026 18.458 14.7945 17.5499 16.4433 15.9013C18.092 14.2527 19 12.0606 19 9.72905C19 7.39735 18.0921 5.20529 16.4433 3.55667ZM15.6968 15.1548C14.2476 16.6042 12.3206 17.4022 10.2711 17.4022C9.01727 17.4022 7.77169 17.0921 6.66894 16.5051C6.46901 16.3989 6.23265 16.3806 6.02049 16.4549L2.21236 17.7876L3.54524 13.9795C3.61956 13.7671 3.60114 13.5307 3.49486 13.3309C2.90803 12.2284 2.59781 10.9829 2.59781 9.72891C2.59781 7.67941 3.39597 5.75239 4.84521 4.30318C6.29432 2.85407 8.22102 2.05592 10.2704 2.05564H10.2711C12.3207 2.05564 14.2476 2.85379 15.6968 4.30318C17.1462 5.75242 17.9444 7.67927 17.9444 9.72891C17.9444 11.7786 17.1462 13.7055 15.6968 15.1548Z" fill="currentColor" stroke="currentColor" stroke-width="0.5"/>
<path d="M6.78027 5.23047C7.22089 4.79002 7.93737 4.78991 8.37793 5.23047L9.56152 6.41406C10.0021 6.85467 10.0021 7.57114 9.56152 8.01172L9.17578 8.39648C9.74807 9.41861 10.5796 10.2499 11.6016 10.8223L11.9873 10.4375C12.4279 9.99707 13.1444 9.99717 13.585 10.4375L14.7686 11.6211C14.9819 11.8342 15.0995 12.1183 15.0996 12.4199C15.0996 12.7215 14.9819 13.0064 14.7686 13.2197L14.5977 13.3896L13.8223 14.166C13.515 14.4733 13.095 14.623 12.5996 14.623C12.1526 14.623 11.6418 14.5014 11.0869 14.2637C10.0734 13.8293 8.96492 13.0371 7.96387 12.0361C6.96279 11.0351 6.16982 9.92667 5.73535 8.91309C5.23751 7.75143 5.24571 6.76406 5.83301 6.17676L6.78027 5.23047ZM6.7207 7.06543C6.67305 7.11345 6.62174 7.23595 6.63281 7.4668C6.64375 7.69377 6.71446 8.00924 6.88965 8.41797C7.25978 9.2817 7.9558 10.2517 8.85156 11.1475C9.74729 12.0432 10.7174 12.7392 11.5811 13.1094C11.9899 13.2845 12.3053 13.3563 12.5322 13.3672C12.7638 13.3783 12.8868 13.3261 12.9346 13.2783L13.791 12.4199L12.7861 11.4141L12.3076 11.8936C12.0285 12.1728 11.6043 12.2406 11.2529 12.0615C9.81692 11.3292 8.67084 10.1821 7.93848 8.74609C7.75935 8.39488 7.82658 7.97148 8.10547 7.69238L8.58496 7.21289L7.5791 6.20703L6.7207 7.06543Z" fill="currentColor" stroke="currentColor" stroke-width="0.2"/>
</svg>
