<svg width="73" height="72" viewBox="0 0 73 72" fill="none" xmlns="http://www.w3.org/2000/svg">
<g clip-path="url(#clip0_8172_2851)">
<path fill-rule="evenodd" clip-rule="evenodd" d="M43.4461 0.342773C44.0885 0.342894 44.6819 0.68678 45.0036 1.24277L48.2977 6.93809C49.1587 6.52927 50.1219 6.30004 51.1383 6.3C54.7993 6.30031 57.7664 9.26785 57.767 12.9287C57.767 16.59 54.7997 19.5589 51.1383 19.5592C50.4352 19.5592 49.758 19.4491 49.1221 19.2463L45.5239 25.4813L48.5473 30.723C49.0702 30.5904 49.6179 30.5209 50.1821 30.5209C53.2193 30.5212 55.7768 32.5633 56.5612 35.3496H62.6186L68.836 24.5813L68.9362 24.4266C69.4698 23.6865 70.488 23.4561 71.2952 23.9221C72.1017 24.3881 72.4106 25.3842 72.037 26.216L71.9526 26.3813L65.7352 37.1496L71.9526 47.918C72.2341 48.4056 72.2695 48.993 72.0581 49.5053L71.9526 49.7197L68.4036 55.8598C69.5701 57.0545 70.2895 58.688 70.2897 60.4898C70.2894 64.151 67.3221 67.1199 63.661 67.1203C60.6231 67.1202 58.0644 65.0754 57.2801 62.2881H50.4053C49.7095 62.3744 48.9974 62.0478 48.6247 61.4021L42.4073 50.6338H31.0096L25.295 60.5338L29.8477 68.9607C30.32 69.8354 29.9945 70.9282 29.12 71.4006C28.2454 71.8727 27.1526 71.5472 26.6801 70.6729L21.651 61.3582C21.5526 61.176 21.4907 60.9805 21.4594 60.7816C21.4025 60.441 21.4419 60.0821 21.5913 59.7498L21.6756 59.5863L27.893 48.818L24.8678 43.5762C24.3475 43.7074 23.8029 43.7783 23.2418 43.7783C20.2048 43.7782 17.646 41.7357 16.861 38.9496H10.7983L4.58266 49.718L4.48246 49.8727C3.94883 50.6126 2.93057 50.843 2.12348 50.3772C1.31651 49.9111 1.00591 48.9135 1.37992 48.0814L1.4643 47.918L7.68168 37.1496L1.4643 26.3813C1.14292 25.8246 1.14323 25.138 1.4643 24.5813L7.65531 13.8568L1.08988 3.37852C0.562638 2.53649 0.817941 1.42622 1.65942 0.898242C2.44932 0.403316 3.47601 0.596062 4.03598 1.3166L4.14145 1.46777L10.7491 12.0111H22.1959L28.4133 1.24277L28.5452 1.0459C28.883 0.60671 29.4096 0.342866 29.9725 0.342773H43.4461ZM63.661 57.4611C61.9949 57.4613 60.6419 58.8051 60.6305 60.4688C60.6306 60.475 60.6323 60.4818 60.6323 60.4881C60.6323 60.4945 60.6306 60.501 60.6305 60.5074C60.6403 62.1725 61.9938 63.5202 63.661 63.5203C65.3339 63.5199 66.6894 62.1628 66.6897 60.4898C66.6894 58.817 65.3339 57.4615 63.661 57.4611ZM56.5612 38.9496C55.7765 41.7357 53.219 43.7798 50.1821 43.7801C49.6191 43.7801 49.0727 43.7083 48.5508 43.5762L45.5239 48.8215L51.2209 58.6881H57.2801C58.0653 55.9025 60.6243 53.8613 63.661 53.8611C64.2211 53.8612 64.7657 53.9289 65.2852 54.0598L68.3139 48.8197L62.6186 38.9496H56.5612ZM27.9844 32.5195C29.1506 33.7141 29.8703 35.3464 29.8706 37.1479C29.8706 38.9488 29.1515 40.5812 27.9862 41.7762L31.0114 47.018H42.4073L45.4342 41.7744C44.2703 40.5799 43.5518 38.9489 43.5516 37.1496C43.5518 35.3517 44.2684 33.7206 45.4307 32.5266L42.4073 27.2813H31.0114L27.9844 32.5195ZM50.1821 34.1209C49.6586 34.1209 49.1651 34.2511 48.7354 34.4848C48.7117 34.4999 48.6897 34.518 48.6651 34.5322C48.656 34.5375 48.6461 34.5412 48.637 34.5463C47.7489 35.0743 47.1518 36.0415 47.1516 37.1496C47.1521 38.8226 48.5092 40.1799 50.1821 40.1801C51.8548 40.1797 53.2103 38.8224 53.2108 37.1496C53.2105 35.4767 51.8549 34.1213 50.1821 34.1209ZM23.2418 34.1191C21.5691 34.1193 20.212 35.475 20.2114 37.1479C20.2114 38.8212 21.5686 40.1782 23.2418 40.1783C24.9149 40.1779 26.2705 38.821 26.2705 37.1479C26.2699 35.4752 24.9145 34.1195 23.2418 34.1191ZM5.10121 25.4813L10.7983 35.3496H16.861C17.6455 32.5629 20.2043 30.5193 23.2418 30.5191C23.8021 30.5192 24.3465 30.5887 24.8661 30.7195L27.893 25.4813L22.1942 15.6111H10.7983L5.10121 25.4813ZM25.3125 13.8111L31.0096 23.6813H42.4055L46.1145 17.2529C45.1144 16.0918 44.5079 14.5811 44.5079 12.9287C44.5081 11.6177 44.8898 10.396 45.5467 9.36738L42.4073 3.94277H31.0096L25.3125 13.8111ZM51.1383 9.9C50.4746 9.90006 49.8622 10.1164 49.3629 10.4783C49.2104 10.7643 48.9804 11.0142 48.6791 11.1885C48.6701 11.1937 48.6602 11.1975 48.651 11.2025C48.31 11.6924 48.1081 12.2866 48.1079 12.9287C48.1079 14.6019 49.4651 15.959 51.1383 15.9592C52.8114 15.9589 54.167 14.6018 54.167 12.9287C54.1664 11.2561 52.811 9.90031 51.1383 9.9Z" fill="#0CBE24"/>
</g>
<defs>
<clipPath id="clip0_8172_2851">
<rect width="72" height="72" fill="white" transform="translate(0.5)"/>
</clipPath>
</defs>
</svg>
