<svg width="73" height="72" viewBox="0 0 73 72" fill="none" xmlns="http://www.w3.org/2000/svg">
<g clip-path="url(#clip0_8172_2188)">
<path d="M53.375 16.875C54.5401 16.875 55.4844 17.8193 55.4844 18.9844C55.4844 20.1495 54.5401 21.0938 53.375 21.0938H32.2812C31.1162 21.0938 30.1719 20.1495 30.1719 18.9844C30.1719 17.8193 31.1162 16.875 32.2812 16.875H53.375Z" fill="#0CBE24"/>
<path d="M53.375 8.4375C54.5401 8.4375 55.4844 9.3818 55.4844 10.5469C55.4844 11.712 54.5401 12.6562 53.375 12.6562H32.2812C31.1162 12.6562 30.1719 11.712 30.1719 10.5469C30.1719 9.3818 31.1162 8.4375 32.2812 8.4375H53.375Z" fill="#0CBE24"/>
<path fill-rule="evenodd" clip-rule="evenodd" d="M61.8125 0C62.9776 0 63.9219 0.944297 63.9219 2.10938V29.6719H66.1719C69.6611 29.6719 72.5 32.5108 72.5 36C72.5 39.4892 69.6612 42.3281 66.1719 42.3281H63.9219V69.8906C63.9219 71.0557 62.9776 72 61.8125 72H11.1875C10.0224 72 9.07812 71.0557 9.07812 69.8906V47.0402C4.32767 45.0406 0.5 41.1109 0.5 36C0.5 30.8908 4.32542 26.9605 9.07812 24.9598V2.10938C9.07812 0.944297 10.0224 0 11.1875 0H61.8125ZM32.0187 42.3281C29.048 46.2057 23.4538 48.6562 17.375 48.6562C16.0073 48.6572 14.6423 48.534 13.2969 48.2882V67.7812H42.8281V53.0156C42.8281 51.8505 43.7724 50.9062 44.9375 50.9062H59.7031V42.3281H32.0187ZM50.0308 67.7812H59.7031V58.1089L50.0308 67.7812ZM47.0469 55.125V64.7974L56.7192 55.125H47.0469ZM17.375 27.5625C11.8625 27.5625 4.71875 30.5629 4.71875 36C4.71875 41.4454 11.8774 44.4375 17.375 44.4375C22.5288 44.4375 27.1357 42.3495 29.1128 39.1179C29.3013 38.8099 29.5657 38.5551 29.8807 38.3785C30.1957 38.202 30.5513 38.1094 30.9124 38.1094H38.6094V33.8906H30.9124C30.5513 33.8906 30.1957 33.798 29.8807 33.6215C29.5657 33.4449 29.3013 33.1901 29.1128 32.8821C27.1357 29.6505 22.5286 27.5625 17.375 27.5625ZM42.8281 33.8906V38.1094H66.1719C67.3348 38.1094 68.2812 37.163 68.2812 36C68.2812 34.837 67.3348 33.8906 66.1719 33.8906H42.8281ZM13.2969 4.21875V23.7118C14.6164 23.4696 15.9835 23.3438 17.375 23.3438C23.4538 23.3438 29.048 25.7943 32.0187 29.6719H59.7031V4.21875H13.2969Z" fill="#0CBE24"/>
</g>
<defs>
<clipPath id="clip0_8172_2188">
<rect width="72" height="72" fill="white" transform="translate(0.5)"/>
</clipPath>
</defs>
</svg>
