<svg width="73" height="72" viewBox="0 0 73 72" fill="none" xmlns="http://www.w3.org/2000/svg">
<g clip-path="url(#clip0_8172_2148)">
<path fill-rule="evenodd" clip-rule="evenodd" d="M36.1682 14.2119C39.8778 14.4001 42.8279 17.4679 42.8281 21.2245V33.8906H56.0469C59.6193 33.8906 62.5155 36.7869 62.5156 40.3594C62.5156 41.3361 62.2968 42.2614 61.9092 43.0917C63.9438 44.1816 65.3281 46.3273 65.3281 48.7969C65.3281 50.8207 64.3973 52.626 62.9419 53.8121C63.5622 54.8049 63.9219 55.9775 63.9219 57.2344C63.9219 60.1633 61.9744 62.6353 59.3043 63.4318C59.562 64.1298 59.7031 64.8843 59.7031 65.6719C59.7031 69.2444 56.8069 72.1406 53.2344 72.1406H30.2653C28.3826 72.1405 26.5475 71.5681 25.0017 70.5037L24.6974 70.2839L21.5476 67.9219H17.5156V69.8906C17.5156 71.0557 16.63 72.0135 15.4952 72.1285L15.2656 72.1406H2.60938C1.44427 72.1406 0.486505 71.255 0.37146 70.1202L0.359375 69.8906V33.3281C0.359433 32.0855 1.36677 31.0781 2.60938 31.0781H15.2656C16.5082 31.0781 17.5156 32.0855 17.5156 33.3281V35.2969H23.2747C24.1664 35.2968 24.9466 34.6973 25.1764 33.8357L29.0216 19.415L29.104 19.1305C30.0154 16.2105 32.725 14.2031 35.8068 14.2031L36.1682 14.2119ZM4.85938 67.6406H13.0156V35.5781H4.85938V67.6406ZM35.8068 18.7031C34.736 18.7031 33.7904 19.3783 33.4337 20.3719L33.37 20.5752L29.5248 34.9948C28.7699 37.8266 26.2052 39.7968 23.2747 39.7969H17.5156V63.4219H22.2969C22.7837 63.4219 23.2576 63.5802 23.6471 63.8723L27.3967 66.6848L27.7153 66.9034C28.4765 67.3835 29.3601 67.6406 30.2653 67.6406H41.4471C41.2489 67.0197 41.1406 66.3585 41.1406 65.6719C41.1406 64.4152 41.4994 63.2423 42.1195 62.2496C40.6645 61.0635 39.7344 59.2579 39.7344 57.2344C39.7344 55.9777 40.0931 54.8048 40.7133 53.8121C39.2582 52.626 38.3281 50.8204 38.3281 48.7969C38.3281 46.3277 39.7118 44.1818 41.746 43.0917C41.3585 42.2615 41.1406 41.336 41.1406 40.3594C41.1406 39.6728 41.2489 39.0115 41.4471 38.3906H37.7656C36.523 38.3906 35.5156 37.3833 35.5156 36.1406C35.5156 34.898 36.523 33.8906 37.7656 33.8906H38.3281V21.2245C38.3279 19.9188 37.3354 18.8452 36.0638 18.7163L35.8068 18.7031ZM47.6094 63.7031C46.5222 63.7031 45.6406 64.5847 45.6406 65.6719C45.6406 66.7591 46.5221 67.6406 47.6094 67.6406H53.2344C54.3216 67.6406 55.2031 66.7591 55.2031 65.6719C55.2031 64.5847 54.3216 63.7031 53.2344 63.7031H47.6094ZM46.2031 55.2656C45.1159 55.2656 44.2344 56.1472 44.2344 57.2344C44.2344 58.3216 45.1159 59.2031 46.2031 59.2031H57.4531C58.5403 59.2031 59.4219 58.3216 59.4219 57.2344C59.4219 56.1472 58.5403 55.2656 57.4531 55.2656H46.2031ZM44.7969 46.8281C43.7097 46.8281 42.8281 47.7097 42.8281 48.7969C42.8281 49.8841 43.7096 50.7656 44.7969 50.7656H58.8594C59.9466 50.7656 60.8281 49.8841 60.8281 48.7969C60.8281 47.7097 59.9466 46.8282 58.8594 46.8281H44.7969ZM47.6094 38.3906C46.5222 38.3906 45.6407 39.2722 45.6406 40.3594C45.6406 41.4466 46.5221 42.3281 47.6094 42.3281H56.0469C57.1341 42.3281 58.0156 41.4466 58.0156 40.3594C58.0155 39.2722 57.134 38.3906 56.0469 38.3906H47.6094Z" fill="#0CBE24"/>
<path fill-rule="evenodd" clip-rule="evenodd" d="M59.1406 -0.140625C59.997 -0.140612 60.7786 0.346167 61.1577 1.11401L64.1108 7.09717L70.7136 8.05627C71.5611 8.17943 72.2661 8.77334 72.5308 9.58777C72.7788 10.3514 72.6002 11.1858 72.0715 11.7795L71.9606 11.8949L67.1815 16.552L68.3109 23.1284C68.4555 23.9724 68.1083 24.8257 67.4155 25.329C66.7662 25.8005 65.9186 25.8885 65.1908 25.5696L65.0469 25.5004L59.1406 22.3956L53.2344 25.5004C52.4764 25.8986 51.5573 25.8322 50.8646 25.329C50.1721 24.8256 49.8258 23.9723 49.9703 23.1284L51.0975 16.552L46.3196 11.8949C45.7064 11.2971 45.486 10.4022 45.7505 9.58777C46.0152 8.77335 46.7202 8.17943 47.5676 8.05627L54.1693 7.09717L57.1224 1.11401C57.5015 0.346002 58.2842 -0.140625 59.1406 -0.140625ZM57.6816 10.1492C57.3743 10.7717 56.7984 11.2159 56.1238 11.3566L55.9875 11.3807L52.7257 11.8553L55.0867 14.1548C55.6168 14.6716 55.8589 15.4169 55.7338 16.1466L55.1757 19.3953L58.0936 17.8616C58.7491 17.517 59.5322 17.517 60.1876 17.8616L63.1045 19.3953L62.5475 16.1466C62.4224 15.4169 62.6645 14.6717 63.1946 14.1548L65.5544 11.8553L62.2937 11.3807C61.6069 11.2809 61.0068 10.87 60.6644 10.2722L60.5996 10.1492L59.1395 7.19385L57.6816 10.1492Z" fill="#0CBE24"/>
</g>
<defs>
<clipPath id="clip0_8172_2148">
<rect width="72" height="72" fill="white" transform="translate(0.5)"/>
</clipPath>
</defs>
</svg>
