<svg width="48" height="48" viewBox="0 0 48 48" fill="none" xmlns="http://www.w3.org/2000/svg">
<g clip-path="url(#clip0_8172_3065)">
<path fill-rule="evenodd" clip-rule="evenodd" d="M24.0002 11.125C24.4192 11.125 24.8106 11.3354 25.0422 11.6846L27.1428 14.8525L30.8039 15.8711C31.2075 15.9835 31.528 16.291 31.6574 16.6895C31.7867 17.0878 31.7079 17.5245 31.4475 17.8525L29.0842 20.8301L29.2473 24.626C29.2651 25.0445 29.0715 25.4452 28.7326 25.6914C28.3938 25.9373 27.954 25.9968 27.5617 25.8506L24.0002 24.5234L20.4387 25.8506C20.0463 25.9967 19.6066 25.9374 19.2678 25.6914C18.9289 25.4452 18.7353 25.0445 18.7531 24.626L18.9152 20.8301L16.5519 17.8525C16.2917 17.5246 16.2138 17.0877 16.343 16.6895C16.4724 16.2911 16.793 15.9835 17.1965 15.8711L20.8566 14.8525L22.9582 11.6846C23.1897 11.3355 23.5813 11.1251 24.0002 11.125ZM22.6838 16.6221C22.5177 16.8724 22.2662 17.0552 21.9768 17.1357L19.6818 17.7744L21.1633 19.6396C21.3501 19.875 21.4456 20.1704 21.4328 20.4707L21.3312 22.8516L23.5637 22.0186C23.8452 21.9136 24.1551 21.9136 24.4367 22.0186L26.6682 22.8516L26.5676 20.4707C26.5548 20.1705 26.6504 19.875 26.8371 19.6396L28.3176 17.7744L26.0236 17.1348C25.7342 17.0542 25.4827 16.8724 25.3166 16.6221L24.0002 14.6377L22.6838 16.6221Z" fill="#0CBE24"/>
<path fill-rule="evenodd" clip-rule="evenodd" d="M24.0002 5.59375C31.3515 5.59377 37.3439 11.5862 37.3439 18.9375C37.3439 26.2889 31.3515 32.2812 24.0002 32.2812C16.6489 32.2811 10.6564 26.2888 10.6564 18.9375C10.6565 11.5863 16.6489 5.59387 24.0002 5.59375ZM24.0002 8.09375C18.0296 8.09387 13.1565 12.967 13.1564 18.9375C13.1564 24.9081 18.0296 29.7811 24.0002 29.7812C29.9708 29.7812 34.8439 24.9081 34.8439 18.9375C34.8439 12.967 29.9708 8.09377 24.0002 8.09375Z" fill="#0CBE24"/>
<path fill-rule="evenodd" clip-rule="evenodd" d="M24.0002 0.15625C34.3464 0.156279 42.7814 8.59134 42.7814 18.9375C42.7814 21.9948 42.0432 24.8843 40.7385 27.4395L47.4562 34.1572C47.7657 34.4667 47.8902 34.9159 47.7853 35.3408C47.6803 35.7659 47.3607 36.1056 46.9426 36.2354L38.7541 38.7773L36.2131 46.9639C36.0833 47.382 35.7446 47.7026 35.3195 47.8076C34.9476 47.8994 34.5571 47.8149 34.258 47.585L34.1359 47.4775L24.3859 37.7275C24.3815 37.7231 24.3776 37.7183 24.3732 37.7139C24.2492 37.7163 24.1248 37.7188 24.0002 37.7188C23.8762 37.7188 23.7525 37.7163 23.6291 37.7139L13.8664 47.4775C13.5569 47.7869 13.1077 47.9124 12.6828 47.8076C12.2578 47.7025 11.918 47.382 11.7883 46.9639L9.24628 38.7773L1.05976 36.2354C0.641686 36.1055 0.321015 35.7658 0.21601 35.3408C0.111244 34.916 0.236693 34.4667 0.546088 34.1572L7.26093 27.4414C5.95586 24.886 5.21894 21.9952 5.21894 18.9375C5.21897 8.59139 13.6541 0.156367 24.0002 0.15625ZM3.77753 34.4619L10.6164 36.584C11.0096 36.706 11.3175 37.014 11.4396 37.4072L13.5617 44.2461L20.4309 37.376C15.5509 36.431 11.3357 33.5879 8.58808 29.6494L3.77753 34.4619ZM39.4113 29.6494C36.6637 33.5877 32.4493 36.4311 27.5695 37.376L34.4387 44.2461L36.5617 37.4072C36.6837 37.0142 36.992 36.7062 37.385 36.584L44.2228 34.4619L39.4113 29.6494ZM24.0002 2.65625C15.0348 2.65637 7.71897 9.97211 7.71894 18.9375C7.71894 21.8355 8.48405 24.5609 9.82148 26.9229C9.87645 26.9981 9.9231 27.0771 9.95917 27.1602C12.7933 31.9745 18.0305 35.2187 24.0002 35.2188C32.9657 35.2187 40.2814 27.903 40.2814 18.9375C40.2814 9.97205 32.9656 2.65628 24.0002 2.65625Z" fill="#0CBE24"/>
</g>
<defs>
<clipPath id="clip0_8172_3065">
<rect width="48" height="48" fill="white"/>
</clipPath>
</defs>
</svg>
