<svg width="73" height="72" viewBox="0 0 73 72" fill="none" xmlns="http://www.w3.org/2000/svg">
<path fill-rule="evenodd" clip-rule="evenodd" d="M36.503 28.6195C40.5728 28.6195 43.8846 31.9301 43.8846 36C43.8846 40.0698 40.5728 43.3816 36.503 43.3816C32.4333 43.3815 29.1225 40.0698 29.1225 36C29.1226 31.9301 32.4333 28.6196 36.503 28.6195ZM36.503 32.8383C34.7595 32.8384 33.3413 34.2564 33.3413 36C33.3413 37.7435 34.7595 39.1628 36.503 39.1629C38.2466 39.1629 39.6659 37.7436 39.6659 36C39.6659 34.2563 38.2466 32.8383 36.503 32.8383Z" fill="#0CBE24"/>
<path fill-rule="evenodd" clip-rule="evenodd" d="M36.503 0C41.3951 0.000183476 45.8471 3.97137 49.0385 11.182C49.2984 11.7689 49.5472 12.3734 49.7862 12.9926C50.4418 12.8899 51.0898 12.8032 51.728 12.7348C59.5681 11.8929 65.2335 13.7633 67.6796 18C70.1257 22.2367 68.9126 28.078 64.2635 34.4473C63.8852 34.9657 63.4862 35.4836 63.0694 36C63.4862 36.5166 63.8852 37.0343 64.2635 37.5527C68.9126 43.9221 70.1257 49.7634 67.6796 54C65.6171 57.5727 61.2655 59.4621 55.2507 59.4621C54.1327 59.4621 52.9569 59.397 51.728 59.2652C51.0898 59.1968 50.4418 59.1101 49.7862 59.0074C49.5472 59.6266 49.2984 60.2311 49.0385 60.818C45.8471 68.0286 41.3951 71.9998 36.503 72C31.6109 72 27.1589 68.0288 23.9675 60.818C23.7076 60.2311 23.4588 59.6265 23.2198 59.0074C22.5641 59.1099 21.9151 59.1968 21.2768 59.2652C20.0488 59.3969 18.8728 59.4621 17.7553 59.4621C11.7398 59.4621 7.38809 57.5729 5.32526 54C2.87928 49.7634 4.09362 43.9219 8.74245 37.5527C9.12079 37.0344 9.51989 36.5165 9.93659 36C9.51988 35.4836 9.12079 34.9656 8.74245 34.4473C4.09362 28.0781 2.87927 22.2367 5.32526 18C7.7711 13.7633 13.437 11.8934 21.2768 12.7348C21.9151 12.8033 22.5641 12.8899 23.2198 12.9926C23.4588 12.3734 23.7076 11.7689 23.9675 11.182C27.1589 3.97121 31.6109 0 36.503 0ZM36.503 55.0816C33.4195 56.3812 30.3628 57.4125 27.4174 58.1484C27.5503 58.4738 27.6859 58.7958 27.8253 59.1105C30.2641 64.6208 33.4271 67.7812 36.503 67.7812C39.5788 67.781 42.742 64.6206 45.1807 59.1105C45.3201 58.7959 45.4545 58.4738 45.5874 58.1484C42.6423 57.4126 39.5862 56.381 36.503 55.0816ZM12.1491 40.0406C8.59665 44.9077 7.44138 49.2269 8.97917 51.8906C10.5172 54.5543 14.8352 55.7128 20.8268 55.0699C21.169 55.0332 21.5157 54.9899 21.8639 54.9422C21.0286 52.0236 20.3946 48.8603 19.9784 45.5402C17.3112 43.5196 14.8883 41.3892 12.7784 39.2063C12.563 39.484 12.3519 39.7626 12.1491 40.0406ZM60.2264 39.2063C58.1166 41.389 55.6946 43.5196 53.0276 45.5402C52.6112 48.8603 51.9773 52.0236 51.1421 54.9422C51.4901 54.9898 51.836 55.0332 52.178 55.0699C58.1698 55.713 62.4875 54.5545 64.0257 51.8906C65.5636 49.2268 64.4083 44.9078 60.8557 40.0406C60.6528 39.7626 60.4417 39.4838 60.2264 39.2063ZM24.7632 48.8766C25.1092 50.7154 25.5296 52.481 26.0229 54.1512C27.716 53.7432 29.456 53.2252 31.2214 52.6055C30.1267 52.0402 29.034 51.4439 27.9483 50.8172C26.8625 50.1903 25.8003 49.5421 24.7632 48.8766ZM48.2417 48.8766C47.2047 49.542 46.1432 50.1904 45.0577 50.8172C43.9721 51.444 42.8794 52.0402 41.7846 52.6055C43.5499 53.225 45.2889 53.7432 46.9819 54.1512C47.4752 52.481 47.8956 50.7154 48.2417 48.8766ZM36.503 21.5191C34.3551 22.4921 32.1959 23.6023 30.0577 24.8367C27.9195 26.0713 25.8782 27.3865 23.9616 28.7602C23.7303 31.1066 23.6124 33.5312 23.6124 36C23.6124 38.4688 23.7303 40.8933 23.9616 43.2398C25.8782 44.6135 27.9195 45.9289 30.0577 47.1633C32.1959 48.3978 34.3551 49.5077 36.503 50.4809C38.6508 49.5078 40.8103 48.3978 42.9483 47.1633C45.0864 45.9288 47.1267 44.6134 49.0432 43.2398C49.2744 40.8933 49.3936 38.4688 49.3936 36C49.3936 33.5312 49.2744 31.1067 49.0432 28.7602C47.1267 27.3866 45.0864 26.0712 42.9483 24.8367C40.8103 23.6023 38.6508 22.4921 36.503 21.5191ZM19.4815 32.2723C18.0623 33.4913 16.7436 34.7379 15.544 36C16.7436 37.2623 18.0623 38.5098 19.4815 39.7289C19.4237 38.498 19.3936 37.2538 19.3936 36C19.3936 34.7465 19.4237 33.5029 19.4815 32.2723ZM53.5245 32.2723C53.5823 33.5028 53.6124 34.7465 53.6124 36C53.6124 37.2536 53.5823 38.4972 53.5245 39.7277C54.9436 38.5088 56.2625 37.2622 57.462 36C56.2625 34.7379 54.9436 33.4912 53.5245 32.2723ZM17.7425 16.7555C13.3621 16.7555 10.2386 17.928 8.97917 20.1094C7.44132 22.7732 8.59636 27.0931 12.1491 31.9605C12.352 32.2384 12.5631 32.5161 12.7784 32.7938C14.8883 30.6108 17.3112 28.4804 19.9784 26.4598C20.3946 23.1397 21.0286 19.9766 21.8639 17.0578C21.5157 17.0101 21.169 16.9668 20.8268 16.9301C19.7419 16.8138 18.7111 16.7555 17.7425 16.7555ZM55.2624 16.7555C54.2935 16.7555 53.2633 16.8137 52.178 16.9301C51.836 16.9668 51.4901 17.0102 51.1421 17.0578C51.9775 19.9765 52.6112 23.1397 53.0276 26.4598C55.6946 28.4804 58.1166 30.6109 60.2264 32.7938C60.4416 32.5162 60.6529 32.2383 60.8557 31.9605C64.4085 27.0931 65.5637 22.7732 64.0257 20.1094C62.7662 17.9283 59.6423 16.7555 55.2624 16.7555ZM26.0229 17.8488C25.5296 19.519 25.1092 21.2846 24.7632 23.1234C25.8003 22.458 26.8625 21.8096 27.9483 21.1828C29.034 20.556 30.1267 19.9598 31.2214 19.3945C29.456 18.7748 27.716 18.2566 26.0229 17.8488ZM46.9819 17.8488C45.2889 18.2566 43.5499 18.7749 41.7846 19.3945C42.8794 19.9598 43.9719 20.5559 45.0577 21.1828C46.1433 21.8095 47.2047 22.4581 48.2417 23.1234C47.8956 21.2846 47.4752 19.519 46.9819 17.8488ZM36.503 4.21875C33.4271 4.21875 30.2641 7.37925 27.8253 12.8895C27.6859 13.2042 27.5503 13.5262 27.4174 13.8516C30.3628 14.5875 33.4195 15.6187 36.503 16.9184C39.5862 15.6189 42.6423 14.5874 45.5874 13.8516C45.4546 13.5262 45.3201 13.2041 45.1807 12.8895C42.742 7.37941 39.5788 4.21898 36.503 4.21875Z" fill="#0CBE24"/>
</svg>
