<svg width="73" height="72" viewBox="0 0 73 72" fill="none" xmlns="http://www.w3.org/2000/svg">
<g clip-path="url(#clip0_8172_2145)">
<path d="M36.3594 12.8042C23.4826 12.8586 13.3748 23.1789 13.297 35.8594C13.2484 43.818 17.2507 51.1628 23.8438 55.4513V57.2344C23.8438 59.1041 24.6595 60.7866 25.9531 61.946V65.6719C25.9531 69.1612 28.7919 72 32.2812 72H40.7188C44.2081 72 47.0469 69.1612 47.0469 65.6719V61.946C48.3405 60.7866 49.1562 59.1043 49.1562 57.2344V55.4503C55.5984 51.2492 59.7031 44.0312 59.7031 36C59.7031 23.2014 49.3393 12.7492 36.3594 12.8042ZM42.8281 65.6719C42.8281 66.835 41.8819 67.7812 40.7188 67.7812H32.2812C31.1181 67.7812 30.1719 66.835 30.1719 65.6719V63.5625H42.8281V65.6719ZM34.3906 42.3281H32.2812C28.7919 42.3281 25.9531 39.4893 25.9531 36V33.8906H28.0625C31.5518 33.8906 34.3906 36.7294 34.3906 40.2188V42.3281ZM45.9906 52.446C45.6704 52.6312 45.4045 52.8974 45.2197 53.2179C45.0348 53.5384 44.9375 53.9019 44.9375 54.2718V57.2344C44.9375 58.3975 43.9912 59.3438 42.8281 59.3438H38.6094V46.5469H40.7188C46.5343 46.5469 51.2656 41.8155 51.2656 36V31.7812C51.2656 30.6163 50.3212 29.6719 49.1562 29.6719H44.9375C41.4911 29.6719 38.4259 31.3338 36.5 33.8979C34.5741 31.3338 31.5089 29.6719 28.0625 29.6719H23.8438C22.6788 29.6719 21.7344 30.6163 21.7344 31.7812V36C21.7344 41.8155 26.4657 46.5469 32.2812 46.5469H34.3906V59.3438H30.1719C29.0088 59.3438 28.0625 58.3975 28.0625 57.2344V54.2718C28.0625 53.9019 27.9652 53.5384 27.7803 53.2179C27.5955 52.8974 27.3296 52.6312 27.0094 52.446C20.9082 48.9165 17.4114 42.5967 17.5169 35.7188C17.6742 25.471 25.808 17.0236 36.4539 17.0236C46.9971 17.0236 55.4844 25.4973 55.4844 36C55.4844 42.7567 51.8465 49.0584 45.9906 52.446ZM38.6094 42.3281V40.2188C38.6094 36.7294 41.4482 33.8906 44.9375 33.8906H47.0469V36C47.0469 39.4893 44.2081 42.3281 40.7188 42.3281H38.6094ZM36.5 0C35.3351 0 34.3906 0.944437 34.3906 2.10938V6.46875C34.3906 7.63369 35.3351 8.57812 36.5 8.57812C37.6649 8.57812 38.6094 7.63369 38.6094 6.46875V2.10938C38.6094 0.944437 37.6649 0 36.5 0ZM17.1098 13.6268L14.1267 10.6436C13.3028 9.81998 11.9674 9.81984 11.1436 10.6436C10.3198 11.4674 10.3198 12.8029 11.1435 13.6267L14.1266 16.6098C14.9503 17.4334 16.2857 17.4337 17.1098 16.6099C17.9336 15.7861 17.9336 14.4506 17.1098 13.6268ZM6.96875 33.8906H2.60938C1.44444 33.8906 0.5 34.8351 0.5 36C0.5 37.1649 1.44444 38.1094 2.60938 38.1094H6.96875C8.13369 38.1094 9.07812 37.1649 9.07812 36C9.07812 34.8351 8.13369 33.8906 6.96875 33.8906ZM70.3906 33.8906H66.0312C64.8663 33.8906 63.9219 34.8351 63.9219 36C63.9219 37.1649 64.8663 38.1094 66.0312 38.1094H70.3906C71.5556 38.1094 72.5 37.1649 72.5 36C72.5 34.8351 71.5556 33.8906 70.3906 33.8906ZM61.8564 10.6436C61.0327 9.81984 59.6971 9.81984 58.8733 10.6436L55.8902 13.6267C55.0664 14.4505 55.0664 15.786 55.8902 16.6098C56.714 17.4336 58.0495 17.4337 58.8733 16.6098L61.8564 13.6267C62.6802 12.8029 62.6802 11.4674 61.8564 10.6436Z" fill="#0CBE24"/>
</g>
<defs>
<clipPath id="clip0_8172_2145">
<rect width="72" height="72" fill="white" transform="translate(0.5)"/>
</clipPath>
</defs>
</svg>
