<svg width="48" height="48" viewBox="0 0 48 48" fill="none" xmlns="http://www.w3.org/2000/svg">
<g clip-path="url(#clip0_8172_3075)">
<path fill-rule="evenodd" clip-rule="evenodd" d="M24 48.094C24.3106 48.094 24.5995 47.9999 24.8389 47.8381C24.9187 47.7842 24.9927 47.7224 25.0605 47.6545C25.332 47.3831 25.5 47.0082 25.5 46.594V31.5305L25.5107 31.2122C25.5624 30.4707 25.7941 29.7514 26.1865 29.1164C26.6349 28.3909 27.2762 27.8046 28.0391 27.4231C29.6365 26.6247 31.6612 25.6117 33.793 24.5461C42.5574 20.1634 48.0938 11.2055 48.0938 1.40649C48.0937 0.886693 47.8249 0.403441 47.3828 0.130119C46.9406 -0.1432 46.3878 -0.167737 45.9229 0.0646894L40.1689 2.94067C29.34 8.35511 22.5001 19.4238 22.5 31.5305V33.0745C19.5807 26.8219 14.6635 21.5662 8.33594 18.262L7.83105 18.0041C6.18365 17.1803 4.74537 16.4608 3.71875 15.9475C3.20542 15.6909 2.79473 15.4859 2.5127 15.345C2.37179 15.2745 2.26313 15.2197 2.18945 15.1829C2.15278 15.1645 2.12429 15.1512 2.10547 15.1418C2.09609 15.1371 2.08874 15.1335 2.08398 15.1311C2.08181 15.13 2.08029 15.1288 2.0791 15.1282L2.07715 15.1272C1.61217 14.8948 1.05936 14.9193 0.617188 15.1926C0.175058 15.4659 -0.0937386 15.9492 -0.09375 16.469C-0.09375 26.2681 5.44265 35.2258 14.207 39.6086C16.339 40.6742 18.3638 41.6866 19.9609 42.4856C20.7238 42.8669 21.3661 43.4535 21.8145 44.1789C22.2628 44.9045 22.5001 45.7411 22.5 46.594C22.5 47.4224 23.1716 48.0939 24 48.094ZM26.248 24.9836C28.1724 16.6893 33.6956 9.53185 41.5107 5.62426L44.9561 3.90258C44.1452 11.3019 39.7666 17.8933 33.1689 21.4885L32.4512 21.8635L26.6973 24.7395C26.5446 24.8159 26.3947 24.8975 26.248 24.9836ZM21.751 40.0471C21.6045 39.9611 21.4553 39.8792 21.3027 39.803L15.5488 36.926C8.55187 33.4271 3.8828 26.6297 3.04297 18.9651C3.98907 19.4381 5.17261 20.0293 6.48926 20.6877L6.94629 20.9211C14.5198 24.8758 19.8644 31.915 21.751 40.0471Z" fill="#0CBE24"/>
</g>
<defs>
<clipPath id="clip0_8172_3075">
<rect width="48" height="48" fill="white" transform="matrix(1 0 0 -1 0 48)"/>
</clipPath>
</defs>
</svg>
