<svg width="73" height="72" viewBox="0 0 73 72" fill="none" xmlns="http://www.w3.org/2000/svg">
<g clip-path="url(#clip0_8172_2848)">
<path fill-rule="evenodd" clip-rule="evenodd" d="M36.4993 2.55957C37.7419 2.55957 38.7493 3.56693 38.7493 4.80957V11.6475L51.0463 18.7468C51.7425 19.1488 52.1713 19.892 52.1713 20.6958V34.8945L64.4683 41.995C65.1643 42.3968 65.5931 43.1392 65.5933 43.9429V58.1427L71.5149 61.5617C72.5908 62.1829 72.9598 63.5585 72.3389 64.6345C71.7175 65.7105 70.341 66.0798 69.2649 65.4585L63.3433 62.0396L51.0463 69.14C50.3503 69.5415 49.4922 69.5418 48.7963 69.14L36.4993 62.0396L24.2023 69.14C23.5497 69.5166 22.7544 69.5401 22.0841 69.2103L21.9523 69.14L9.65421 62.0396L3.73367 65.4585L3.52823 65.564C2.48823 66.0309 1.24203 65.6431 0.659699 64.6345C0.0390274 63.5586 0.408083 62.183 1.48367 61.5617L7.40531 58.1427V43.9429L7.4108 43.7935C7.46045 43.0482 7.87796 42.3719 8.5303 41.995L20.8273 34.8945V20.6958C20.8273 19.8921 21.2563 19.1488 21.9523 18.7468L34.2493 11.6475V4.80957C34.2493 3.56708 35.2569 2.55981 36.4993 2.55957ZM11.9053 45.2415V58.1427L23.0773 64.5917L34.2493 58.1427V45.2415L23.0773 38.7925L11.9053 45.2415ZM38.7493 45.2415V58.1427L49.9213 64.5917L61.0933 58.1427V45.2415L49.9213 38.7925L38.7493 45.2415ZM25.3273 21.9933V34.8945L36.4993 41.3446L47.6713 34.8945V21.9933L36.4993 15.5443L25.3273 21.9933Z" fill="#0CBE24"/>
</g>
<defs>
<clipPath id="clip0_8172_2848">
<rect width="72" height="72" fill="white" transform="translate(0.5)"/>
</clipPath>
</defs>
</svg>
