<svg width="73" height="72" viewBox="0 0 73 72" fill="none" xmlns="http://www.w3.org/2000/svg">
<path d="M66.875 40.6406H48.7344V33.7499C48.7344 32.585 47.7899 31.6406 46.625 31.6406H26.375C25.2101 31.6406 24.2656 32.585 24.2656 33.7499V49.6406H6.125C4.96006 49.6406 4.01562 50.585 4.01562 51.7499V69.8906C4.01562 71.0555 4.96006 71.9999 6.125 71.9999H66.875C68.0399 71.9999 68.9844 71.0555 68.9844 69.8906V42.7499C68.9844 41.5849 68.0399 40.6406 66.875 40.6406ZM24.2656 67.7812H8.23438V62.8593H24.2656V67.7812ZM24.2656 58.6406H8.23438V53.8593H24.2656V58.6406ZM44.5156 67.7812H28.4844V62.8593H44.5156V67.7812ZM44.5156 58.6406H28.4844V53.8593H44.5156V58.6406ZM44.5156 49.6406H28.4844V44.8593H44.5156V49.6406ZM44.5156 40.6406H28.4844V35.8593H44.5156V40.6406ZM64.7656 67.7812H48.7344V62.8593H64.7656V67.7812ZM64.7656 58.6406H48.7344V53.8593H64.7656V58.6406ZM64.7656 49.6406H48.7344V44.8593H64.7656V49.6406ZM48.875 18.9843H50.1406V25.8749C50.1406 27.0399 51.0851 27.9843 52.25 27.9843H61.25C62.4149 27.9843 63.3594 27.0399 63.3594 25.8749V18.9843H64.625C65.0561 18.9844 65.4768 18.8525 65.8306 18.6062C66.1844 18.3599 66.4542 18.0112 66.6038 17.6069C66.7533 17.2026 66.7754 16.7622 66.667 16.345C66.5586 15.9278 66.325 15.5538 65.9976 15.2734L58.1226 8.52335C57.7403 8.19571 57.2534 8.01562 56.7499 8.01562C56.2464 8.01562 55.7595 8.19571 55.3772 8.52335L47.5022 15.2734C47.175 15.5538 46.9415 15.9278 46.8332 16.345C46.725 16.7622 46.7471 17.2025 46.8966 17.6068C47.0461 18.011 47.3159 18.3597 47.6696 18.606C48.0233 18.8523 48.444 18.9843 48.875 18.9843ZM56.75 12.903L59.7064 15.4372C59.3421 15.8272 59.1399 16.3412 59.1406 16.8749V23.7656H54.3594V16.8749C54.3601 16.3412 54.1579 15.8273 53.7936 15.4372L56.75 12.903ZM28.625 10.9687H29.8906V17.9999C29.8906 19.1649 30.8351 20.1093 32 20.1093H41C42.1649 20.1093 43.1094 19.1649 43.1094 17.9999V10.9687H44.375C44.8061 10.9688 45.2268 10.8369 45.5806 10.5906C45.9344 10.3443 46.2042 9.99556 46.3538 9.59127C46.5033 9.18698 46.5254 8.74657 46.417 8.32935C46.3086 7.91213 46.075 7.53814 45.7476 7.25773L37.8726 0.507729C37.4903 0.18009 37.0034 0 36.4999 0C35.9964 0 35.5095 0.18009 35.1272 0.507729L27.2522 7.25773C26.925 7.53822 26.6915 7.91222 26.5832 8.3294C26.475 8.74658 26.4971 9.18692 26.6466 9.59115C26.7961 9.99538 27.0659 10.3441 27.4196 10.5904C27.7733 10.8367 28.194 10.9687 28.625 10.9687ZM36.5 4.88735L39.4564 7.42156C39.0921 7.81162 38.8899 8.32562 38.8906 8.85931V15.8906H34.1094V8.85931C34.1101 8.32562 33.9079 7.81163 33.5436 7.42156L36.5 4.88735ZM8.375 18.9843H9.64062V25.8749C9.64062 27.0399 10.5851 27.9843 11.75 27.9843H20.75C21.9149 27.9843 22.8594 27.0399 22.8594 25.8749V18.9843H24.125C24.5561 18.9844 24.9768 18.8525 25.3306 18.6062C25.6844 18.3599 25.9542 18.0112 26.1038 17.6069C26.2533 17.2026 26.2754 16.7622 26.167 16.345C26.0586 15.9278 25.825 15.5538 25.4976 15.2734L17.6226 8.52335C17.2403 8.19571 16.7534 8.01562 16.2499 8.01562C15.7464 8.01562 15.2595 8.19571 14.8772 8.52335L7.00222 15.2734C6.67497 15.5538 6.4415 15.9278 6.33323 16.345C6.22495 16.7622 6.24707 17.2025 6.39661 17.6068C6.54614 18.011 6.81592 18.3597 7.16963 18.606C7.52333 18.8523 7.944 18.9843 8.375 18.9843ZM16.25 12.903L19.2064 15.4372C18.8421 15.8272 18.6399 16.3412 18.6406 16.8749V23.7656H13.8594V16.8749C13.8601 16.3412 13.6579 15.8273 13.2936 15.4372L16.25 12.903Z" fill="#0CBE24"/>
</svg>
