<svg width="48" height="48" viewBox="0 0 48 48" fill="none" xmlns="http://www.w3.org/2000/svg">
<path d="M32.4521 35.3368C32.354 34.5856 32.9053 32.3038 31.0217 30.1943C33.3387 26.6819 35.2484 22.3725 34.3711 18.2602L38.7551 17.4767C42.8684 16.7416 43.749 11.2378 40.1027 9.23574C40.9567 7.95399 41.2771 6.41874 41.0054 4.89774C40.4287 1.67199 37.3354 -0.483039 34.1091 0.0932424C32.5881 0.365117 31.2587 1.19752 30.3521 2.44271C27.2099 -0.284851 22.3524 2.44927 23.0875 6.56134L23.8708 10.9441C19.4397 11.5912 15.8788 15.2665 13.3086 18.9549C7.72241 26.9716 0.755944 43.3218 6.37944 47.2396C10.3732 50.0219 17.544 44.5111 21.198 41.2928V42.3698C21.198 45.4726 23.7224 47.9969 26.8251 47.9969C28.7154 47.9969 30.3898 47.0589 31.4106 45.625C35.6917 50.4437 43.6967 47.4151 43.6967 40.9613C43.6966 35.1546 37.0406 31.8904 32.4521 35.3368ZM29.6398 33.9376V36.7475H24.0103V33.9376C24.0103 32.3855 25.273 31.1228 26.8251 31.1228C28.377 31.1228 29.6398 32.3855 29.6398 33.9376ZM27.1624 4.19152C28.0404 4.03496 28.8809 4.6208 29.0376 5.49793L29.3041 6.98902C29.4407 7.75346 30.1715 8.26196 30.9358 8.12584C31.7003 7.98915 32.2093 7.25865 32.0726 6.49421C31.7682 4.79096 32.9002 3.16618 34.6038 2.86168C36.303 2.55774 37.9331 3.69343 38.2368 5.39265C38.3839 6.21577 38.2018 7.04696 37.7236 7.73302C36.9071 8.90481 35.7162 9.02096 35.7055 9.02518C34.941 9.16177 34.432 9.89227 34.5687 10.6568C34.7054 11.4213 35.4358 11.9301 36.2003 11.7936L37.6916 11.5271C38.5692 11.3702 39.41 11.9564 39.5668 12.8334C39.7239 13.7125 39.1396 14.5511 38.2603 14.7082L33.3404 15.5874C31.9372 13.1918 29.3662 11.4513 26.7345 10.9827L25.8557 6.06624C25.6988 5.18724 26.283 4.34865 27.1624 4.19152ZM7.98707 44.932C7.02154 44.2593 6.52185 41.4136 8.29101 35.607C8.44462 35.1041 8.60733 34.604 8.77907 34.1071L10.8422 35.5444C11.4766 35.9864 12.3539 35.8345 12.7998 35.1945C13.2438 34.5573 13.0871 33.6808 12.4499 33.2369L9.80329 31.3931C10.9726 28.5318 12.4383 25.6172 14.0223 23.0151L17.7588 25.6183C18.3932 26.0604 19.2707 25.9081 19.7164 25.2683C20.1603 24.6312 20.0037 23.7546 19.3664 23.3107L15.5532 20.6541C17.8601 17.3252 21.3475 13.5271 25.382 13.6679C25.4339 13.6736 25.4866 13.6759 25.5397 13.6757C28.2671 13.8413 31.1189 15.9532 31.669 19.0915C31.9249 20.5517 31.709 22.2309 31.0425 24.0728L26.5474 20.9411C25.9102 20.4973 25.0337 20.6539 24.5898 21.2911C24.1459 21.9282 24.3026 22.8047 24.9398 23.2486L29.8585 26.6754C29.5132 27.3124 29.1217 27.9639 28.6852 28.6277C25.7145 27.5839 22.4776 29.1932 21.4873 32.1607L19.6307 30.8673C18.9936 30.4234 18.1171 30.5802 17.6731 31.2173C17.2291 31.8544 17.3859 32.731 18.0231 33.1749L21.1981 35.3868V37.4703C18.8522 39.7367 10.6394 46.78 7.98707 44.932ZM29.6398 42.3698C29.6398 43.9218 28.3771 45.1846 26.8251 45.1846C25.2731 45.1846 24.0104 43.9218 24.0104 42.3698V39.5598H29.6399C29.6397 39.5741 29.6397 42.3595 29.6398 42.3698ZM36.6659 45.1799C34.4021 45.1799 32.5498 43.3874 32.4521 41.1472V40.7755C32.5498 38.5353 34.4021 36.7428 36.6659 36.7428C38.9919 36.7428 40.8843 38.6352 40.8843 40.9613C40.8843 43.2874 38.992 45.1799 36.6659 45.1799Z" fill="#0CBE24"/>
</svg>
