<svg width="48" height="48" viewBox="0 0 48 48" fill="none" xmlns="http://www.w3.org/2000/svg">
<path fill-rule="evenodd" clip-rule="evenodd" d="M36.6562 0.15625C37.3466 0.15629 37.9062 0.715926 37.9062 1.40625V6.83203L40.6572 15.2686C40.6582 15.2714 40.6583 15.2745 40.6592 15.2773C40.6777 15.3355 40.6913 15.3955 40.7012 15.457C40.7117 15.5214 40.7174 15.5855 40.7178 15.6494C40.7178 15.6517 40.7188 15.654 40.7188 15.6562V46.5938C40.7188 47.2841 40.1591 47.8437 39.4688 47.8438H8.53125C7.84089 47.8438 7.28125 47.2841 7.28125 46.5938V15.624C7.28272 15.5682 7.28963 15.5122 7.29883 15.4561C7.30873 15.3947 7.32134 15.3344 7.33984 15.2764L7.34277 15.2686L10.0938 6.83203V1.40625C10.0938 0.715901 10.6534 0.15625 11.3438 0.15625H36.6562ZM9.78125 45.3438H38.2188V16.9062H9.78125V45.3438ZM10.2539 14.4062H37.7461L35.749 8.28125H12.251L10.2539 14.4062ZM12.5938 2.65625V5.78125H35.4062V2.65625H12.5938Z" fill="#0CBE24"/>
</svg>
