<svg width="64" height="64" viewBox="0 0 64 64" fill="none" xmlns="http://www.w3.org/2000/svg">
<path d="M25.8779 53.2568C26.5082 53.3209 27 53.8529 27 54.5C27 55.1471 26.5082 55.6791 25.8779 55.7432L25.75 55.75H13.25C12.5596 55.75 12 55.1904 12 54.5C12 53.8096 12.5596 53.25 13.25 53.25H25.75L25.8779 53.2568Z" fill="#0CBE24"/>
<path d="M38.3779 45.7568C39.0081 45.821 39.5 46.3529 39.5 47C39.5 47.6471 39.0081 48.179 38.3779 48.2432L38.25 48.25H13.25C12.5596 48.25 12 47.6904 12 47C12 46.3096 12.5596 45.75 13.25 45.75H38.25L38.3779 45.7568Z" fill="#0CBE24"/>
<path d="M35.8779 38.2568C36.5081 38.321 37 38.8529 37 39.5C37 40.1471 36.5081 40.679 35.8779 40.7432L35.75 40.75H13.25C12.5596 40.75 12 40.1904 12 39.5C12 38.8096 12.5596 38.25 13.25 38.25H35.75L35.8779 38.2568Z" fill="#0CBE24"/>
<path d="M35.8779 30.7568C36.5081 30.821 37 31.3529 37 32C37 32.6471 36.5081 33.179 35.8779 33.2432L35.75 33.25H13.25C12.5596 33.25 12 32.6904 12 32C12 31.3096 12.5596 30.75 13.25 30.75H35.75L35.8779 30.7568Z" fill="#0CBE24"/>
<path fill-rule="evenodd" clip-rule="evenodd" d="M14.1357 8.26074C14.6979 8.28225 15.479 8.34349 16.3613 8.50488C18.0975 8.82249 20.3741 9.55378 22.0957 11.2754C22.8708 12.0506 23.4441 12.9386 23.8701 13.8389C24.2962 12.9385 24.8703 12.0507 25.6455 11.2754C27.3671 9.55375 29.6447 8.82347 31.3809 8.50586C32.2629 8.34451 33.0434 8.28227 33.6055 8.26074C33.8874 8.24995 34.117 8.24887 34.2793 8.25098C34.3605 8.25203 34.4254 8.25424 34.4717 8.25586C34.4944 8.25666 34.5127 8.2572 34.5264 8.25781C34.5332 8.25812 34.5395 8.25856 34.5439 8.25879H34.5518L34.5527 8.25977C34.5526 8.26911 34.547 8.37276 34.4844 9.50781L35.7324 9.43945L35.7334 9.44238C35.7334 9.44391 35.7333 9.44625 35.7334 9.44824C35.7336 9.45253 35.7341 9.45842 35.7344 9.46484C35.735 9.47852 35.7355 9.49778 35.7363 9.52051C35.7379 9.56674 35.7402 9.63198 35.7412 9.71289C35.7433 9.87513 35.7422 10.1051 35.7314 10.3867C35.7099 10.9488 35.6486 11.7296 35.4873 12.6113C35.1697 14.3475 34.4384 16.6251 32.7168 18.3467C30.9952 20.068 28.7184 20.7987 26.9824 21.1162C26.2774 21.2452 25.6368 21.308 25.1211 21.3398V24.5C25.1211 25.1904 24.5614 25.75 23.8711 25.75C23.1807 25.75 22.6211 25.1904 22.6211 24.5V21.3408C22.1054 21.3089 21.465 21.2452 20.7598 21.1162C19.0236 20.7987 16.7461 20.0683 15.0244 18.3467C13.3028 16.625 12.5725 14.3475 12.2549 12.6113C12.0936 11.7294 12.0323 10.9488 12.0107 10.3867C12 10.105 11.9989 9.87515 12.001 9.71289C12.002 9.63184 12.0042 9.56675 12.0059 9.52051C12.0067 9.49765 12.0072 9.47853 12.0078 9.46484C12.0081 9.4583 12.0086 9.45256 12.0088 9.44824V9.43945L13.2568 9.50781C13.1936 8.36151 13.1895 8.26742 13.1895 8.25977L13.1982 8.25879C13.2026 8.25857 13.2082 8.25811 13.2148 8.25781C13.2286 8.25719 13.2474 8.25667 13.2705 8.25586C13.3168 8.25424 13.3818 8.25203 13.4629 8.25098C13.6251 8.24887 13.8541 8.24997 14.1357 8.26074ZM14.5381 10.7891C14.5685 11.1857 14.6211 11.6552 14.7139 12.1621C14.9899 13.671 15.5859 15.371 16.793 16.5781C18.0001 17.7852 19.7001 18.3812 21.209 18.6572C21.716 18.75 22.1854 18.8026 22.582 18.833C22.5516 18.4363 22.499 17.9671 22.4062 17.46C22.1475 16.0453 21.6079 14.4624 20.5469 13.2754L20.3281 13.043C19.1209 11.8358 17.4201 11.2409 15.9111 10.9648C15.4039 10.8721 14.9349 10.8195 14.5381 10.7891ZM33.2031 10.7891C32.8064 10.8195 32.3371 10.8721 31.8301 10.9648C30.3213 11.2409 28.6211 11.8361 27.4141 13.043C26.207 14.2501 25.611 15.951 25.335 17.46C25.2422 17.967 25.1896 18.4364 25.1592 18.833C25.5559 18.8026 26.025 18.75 26.5322 18.6572C28.0412 18.3812 29.742 17.7852 30.9492 16.5781C32.1561 15.3711 32.7513 13.6708 33.0273 12.1621C33.12 11.6553 33.1727 11.1856 33.2031 10.7891Z" fill="#0CBE24"/>
<path d="M13.2568 9.50781L12.0088 9.43945C12.0439 8.80334 12.5533 8.29486 13.1895 8.25977L13.2568 9.50781Z" fill="#0CBE24"/>
<path d="M34.5527 8.25977C35.1888 8.29495 35.6973 8.80341 35.7324 9.43945L34.4844 9.50781L34.5527 8.25977Z" fill="#0CBE24"/>
<path d="M50.75 32.625C51.7855 32.625 52.625 33.4645 52.625 34.5C52.625 35.5355 51.7855 36.375 50.75 36.375C49.7145 36.375 48.875 35.5355 48.875 34.5C48.875 33.4645 49.7145 32.625 50.75 32.625Z" fill="#0CBE24"/>
<path fill-rule="evenodd" clip-rule="evenodd" d="M50.75 0.625C51.4402 0.625072 51.9999 1.18477 52 1.875V25.8398C56.2403 26.4465 59.5 30.092 59.5 34.5C59.5 36.8834 58.5457 39.043 57 40.6211V54.5C57 54.9735 56.7321 55.4064 56.3086 55.6182C55.8852 55.8297 55.3787 55.784 55 55.5L52 53.25V62.125C52 62.8153 51.4403 63.3749 50.75 63.375H5.75C5.05964 63.375 4.5 62.8154 4.5 62.125V1.875C4.5001 1.18473 5.05971 0.625 5.75 0.625H50.75ZM7 60.875H49.5V53.25L46.5 55.5C46.1213 55.784 45.6148 55.8297 45.1914 55.6182C44.7679 55.4064 44.5 54.9735 44.5 54.5V40.6211C42.9543 39.043 42 36.8834 42 34.5C42 30.092 45.2597 26.4465 49.5 25.8398V3.125H7V60.875ZM54.5 42.4062C53.3633 42.9464 52.0923 43.25 50.75 43.25C49.4077 43.25 48.1367 42.9464 47 42.4062V52L50 49.75C50.0099 49.7426 50.0202 49.7356 50.0303 49.7285C50.0417 49.7204 50.0527 49.7118 50.0645 49.7041C50.0827 49.6921 50.1014 49.6809 50.1201 49.6699C50.1314 49.6633 50.1428 49.6567 50.1543 49.6504L50.1738 49.6406C50.2377 49.6074 50.3036 49.58 50.3711 49.5586C50.3804 49.5556 50.39 49.5535 50.3994 49.5508C50.4256 49.5431 50.452 49.5362 50.4785 49.5303C50.4925 49.5272 50.5064 49.5241 50.5205 49.5215C50.5481 49.5163 50.5757 49.5121 50.6035 49.5088C50.6123 49.5078 50.6211 49.5067 50.6299 49.5059C50.7094 49.4982 50.7896 49.4983 50.8691 49.5059C50.878 49.5067 50.8867 49.5078 50.8955 49.5088C50.9233 49.512 50.951 49.5164 50.9785 49.5215C50.9926 49.5241 51.0066 49.5272 51.0205 49.5303C51.0471 49.5362 51.0734 49.5431 51.0996 49.5508C51.109 49.5535 51.1186 49.5556 51.1279 49.5586C51.2009 49.5817 51.2722 49.6116 51.3408 49.6484C51.3469 49.6517 51.3524 49.6558 51.3584 49.6592C51.3846 49.6738 51.4102 49.6894 51.4355 49.7061C51.4467 49.7134 51.4578 49.7208 51.4688 49.7285C51.4791 49.7358 51.4899 49.7424 51.5 49.75L54.5 52V42.4062ZM50.75 28.25C47.2983 28.25 44.5 31.0483 44.5 34.5C44.5 36.3109 45.2713 37.9406 46.502 39.082C46.5577 39.1241 46.6093 39.171 46.6572 39.2217C47.7539 40.1731 49.1842 40.75 50.75 40.75C52.3155 40.75 53.7452 40.1728 54.8418 39.2217C54.8897 39.171 54.9414 39.1242 54.9971 39.082C56.228 37.9406 57 36.3111 57 34.5C57 31.0483 54.2017 28.25 50.75 28.25Z" fill="#0CBE24"/>
</svg>
