<svg width="56" height="56" viewBox="0 0 56 56" fill="none" xmlns="http://www.w3.org/2000/svg">
<path d="M43.3128 23.3007V3.80007C43.3128 1.70465 41.608 0 39.5126 0H8.61452C6.5191 0 4.81445 1.70465 4.81445 3.80007V44.3229C4.81445 46.4183 6.5191 48.1229 8.61452 48.1229H31.9383V54.2477C31.9383 55.5859 33.3874 56.4349 34.5564 55.767L39.813 52.7633C45.6188 56.0809 45.3153 55.9976 45.9377 55.9976C46.9041 55.9976 47.6876 55.213 47.6876 54.2477V42.3235C53.916 36.3398 51.449 25.938 43.3128 23.3007ZM8.61452 44.6231C8.44894 44.6231 8.3143 44.4884 8.3143 44.3229V3.80007C8.3143 3.63448 8.44894 3.49985 8.61452 3.49985H39.5127C39.6783 3.49985 39.813 3.63448 39.813 3.80007V22.749C33.541 22.749 28.4384 27.8516 28.4384 34.1235C28.4384 37.3421 29.7824 40.2523 31.9383 42.3235V44.6231H8.61452ZM44.1878 51.2322L40.6811 49.2284C40.143 48.921 39.4828 48.921 38.9447 49.2284L35.438 51.2322V44.6225C38.2284 45.7896 41.3936 45.7912 44.1877 44.6225L44.1878 51.2322ZM39.813 41.9982C35.4708 41.9982 31.9383 38.4656 31.9383 34.1235C31.9383 29.7814 35.4708 26.2489 39.813 26.2489C44.1551 26.2489 47.6876 29.7814 47.6876 34.1235C47.6876 38.4656 44.1551 41.9982 39.813 41.9982Z" fill="#0CBE24"/>
<path d="M38.9359 38.6074C38.2523 38.6074 38.1653 38.4457 35.342 36.5634C34.5378 36.0273 34.3205 34.9408 34.8566 34.1367C35.3927 33.3325 36.4792 33.1153 37.2833 33.6513L38.4523 34.4306L40.9815 30.6369C41.5175 29.8327 42.6042 29.6155 43.4082 30.1515C44.2124 30.6876 44.4297 31.7741 43.8935 32.5782L40.3937 37.828C40.0563 38.3338 39.5013 38.6074 38.9359 38.6074Z" fill="#0CBE24"/>
<path d="M30.1868 12.2498H15.3124C14.346 12.2498 13.5625 11.4663 13.5625 10.4999C13.5625 9.53353 14.346 8.75 15.3124 8.75H30.1868C31.1533 8.75 31.9367 9.53353 31.9367 10.4999C31.9367 11.4663 31.1532 12.2498 30.1868 12.2498Z" fill="#0CBE24"/>
<path d="M30.1868 19.2498H15.3124C14.346 19.2498 13.5625 18.4663 13.5625 17.4999C13.5625 16.5335 14.346 15.75 15.3124 15.75H30.1868C31.1533 15.75 31.9367 16.5335 31.9367 17.4999C31.9367 18.4663 31.1532 19.2498 30.1868 19.2498Z" fill="#0CBE24"/>
<path d="M24.062 26.2498H15.3124C14.346 26.2498 13.5625 25.4663 13.5625 24.4999C13.5625 23.5335 14.346 22.75 15.3124 22.75H24.062C25.0284 22.75 25.812 23.5335 25.812 24.4999C25.812 25.4663 25.0284 26.2498 24.062 26.2498Z" fill="#0CBE24"/>
</svg>
