<svg width="73" height="73" viewBox="0 0 73 73" fill="none" xmlns="http://www.w3.org/2000/svg">
<path d="M70.0825 30.0565C68.2632 28.1018 65.692 27.0192 62.8352 27.0192H56.2644V23.5609C56.2644 23.5008 56.2644 23.4407 56.2494 23.3956C56.2494 23.3655 56.2343 23.3354 56.2343 23.3204C56.2343 23.2903 56.2193 23.2602 56.2193 23.2302C56.2193 23.2001 56.2043 23.17 56.2043 23.1399C56.2043 23.1099 56.1892 23.0798 56.1892 23.0648C56.1742 23.0347 56.1742 23.0046 56.1592 22.9745C56.1441 22.9445 56.1441 22.9144 56.1291 22.8994C56.1141 22.8693 56.099 22.8543 56.099 22.8242C56.084 22.7941 56.0689 22.764 56.0539 22.749C56.0389 22.7189 56.0238 22.7039 56.0088 22.6738C55.9938 22.6438 55.9787 22.6137 55.9637 22.5986C55.9487 22.5686 55.9336 22.5535 55.9035 22.5235C55.8885 22.5084 55.8735 22.4784 55.8584 22.4633C55.8284 22.4182 55.7833 22.3731 55.7532 22.343C55.7532 22.343 55.7532 22.343 55.7382 22.328L48.9419 15.4716C48.596 15.1257 48.145 14.9453 47.6638 14.9453H29.0342C28.553 14.9453 28.102 15.1408 27.7561 15.4716L20.9599 22.2679C20.9599 22.2679 20.9599 22.2679 20.9448 22.2829C20.8997 22.328 20.8696 22.3581 20.8396 22.4032C20.8245 22.4182 20.8095 22.4483 20.7945 22.4633C20.7794 22.4934 20.7494 22.5084 20.7343 22.5385C20.7193 22.5686 20.7042 22.5986 20.6892 22.6137C20.6742 22.6438 20.6591 22.6588 20.6441 22.6889C20.6291 22.7189 20.614 22.749 20.599 22.764C20.584 22.7941 20.5689 22.8091 20.5689 22.8392C20.5539 22.8693 20.5539 22.8994 20.5388 22.9144C20.5238 22.9445 20.5238 22.9745 20.5088 23.0046C20.4937 23.0347 20.4937 23.0648 20.4937 23.0798C20.4787 23.1099 20.4787 23.1399 20.4787 23.17C20.4787 23.2001 20.4637 23.2302 20.4637 23.2602C20.4637 23.2903 20.4486 23.3204 20.4486 23.3354C20.4486 23.3956 20.4336 23.4557 20.4336 23.5008V52.0241C20.4336 53.0165 21.2455 53.8284 22.2379 53.8284H26.9893C27.6058 56.2492 29.8161 58.0536 32.4173 58.0536C35.0185 58.0536 37.2288 56.2492 37.8453 53.8284H54.4451H56.8809C57.4974 56.2492 59.7077 58.0536 62.3089 58.0536C64.9252 58.0536 67.1204 56.2492 67.7369 53.8284H71.1952C72.1876 53.8284 72.9995 53.0165 72.9995 52.0241V38.612C73.0145 35.1086 72.0071 32.1315 70.0825 30.0565ZM50.1147 21.7566H39.9353V18.569H46.912L50.1147 21.7566ZM29.786 18.554H36.3267V21.7416H26.5984L29.786 18.554ZM24.0422 25.3653H52.6558V28.8236V50.2649H37.6498C37.6198 50.2649 37.6047 50.2649 37.5746 50.2649C36.7176 48.2802 34.7328 46.8818 32.4323 46.8818C30.1168 46.8818 28.132 48.2802 27.275 50.2799C27.1998 50.2649 27.1246 50.2649 27.0344 50.2649H24.0422V25.3653ZM32.4323 54.49C31.3347 54.49 30.4325 53.5879 30.4325 52.4902C30.4325 51.3926 31.3347 50.4905 32.4323 50.4905C33.53 50.4905 34.4321 51.3926 34.4321 52.4902C34.4321 53.5879 33.53 54.49 32.4323 54.49ZM62.3239 54.49C61.2263 54.49 60.3241 53.5879 60.3241 52.4902C60.3241 51.3926 61.2263 50.4905 62.3239 50.4905C63.4216 50.4905 64.3237 51.3926 64.3237 52.4902C64.3237 53.5879 63.4366 54.49 62.3239 54.49ZM69.4059 50.2649H67.4813C66.6242 48.2802 64.6395 46.8818 62.339 46.8818C60.0385 46.8818 58.0537 48.2802 57.1966 50.2649H56.2794V30.6279H62.8502C66.9701 30.6279 69.4209 33.6351 69.4209 38.6721V50.2649H69.4059Z" fill="#0CBE24"/>
<path d="M17.171 28.9883H7.29236C6.29998 28.9883 5.48804 29.8002 5.48804 30.7926C5.48804 31.785 6.29998 32.5969 7.29236 32.5969H17.171C18.1634 32.5969 18.9753 31.785 18.9753 30.7926C18.9753 29.8002 18.1634 28.9883 17.171 28.9883Z" fill="#0CBE24"/>
<path d="M17.1711 36.0117H1.80432C0.811945 36.0117 0 36.8237 0 37.816C0 38.8084 0.811945 39.6204 1.80432 39.6204H17.1711C18.1635 39.6204 18.9754 38.8084 18.9754 37.816C18.9754 36.8237 18.1635 36.0117 17.1711 36.0117Z" fill="#0CBE24"/>
<path d="M17.171 43.0332H7.29236C6.29998 43.0332 5.48804 43.8451 5.48804 44.8375C5.48804 45.8299 6.29998 46.6418 7.29236 46.6418H17.171C18.1634 46.6418 18.9753 45.8299 18.9753 44.8375C18.9753 43.8451 18.1634 43.0332 17.171 43.0332Z" fill="#0CBE24"/>
</svg>
