<svg width="56" height="56" viewBox="0 0 56 56" fill="none" xmlns="http://www.w3.org/2000/svg">
<g clip-path="url(#clip0_8172_1515)">
<path d="M50.771 28C50.771 26.0583 50.5273 24.1735 50.07 22.3741L53.5587 19.5518L48.0953 10.089L43.9002 11.7016C41.2129 9.07933 37.8805 7.11583 34.1624 6.07283L33.4625 1.64062H22.5357L21.8359 6.07283C18.1178 7.11572 14.7854 9.07933 12.098 11.7016L7.90295 10.0889L2.43956 19.5517L5.9283 22.374C5.47089 24.1736 5.2272 26.0583 5.2272 28C5.2272 29.9417 5.47089 31.8265 5.92819 33.6259L2.43945 36.4482L7.90284 45.9111L12.0979 44.2985C14.7853 46.9208 18.1177 48.8843 21.8358 49.9272L22.5357 54.3594H33.4625L34.1622 49.9272C37.8803 48.8843 41.2129 46.9207 43.9001 44.2985L48.0952 45.9111L53.5586 36.4482L50.0699 33.6259C50.5273 31.8265 50.771 29.9417 50.771 28Z" stroke="#0CBE24" stroke-width="3" stroke-miterlimit="10" stroke-linecap="round" stroke-linejoin="round"/>
<path d="M27.9996 42.3762C35.9396 42.3762 42.3762 35.9396 42.3762 27.9996C42.3762 20.0597 35.9396 13.623 27.9996 13.623C20.0597 13.623 13.623 20.0597 13.623 27.9996C13.623 35.9396 20.0597 42.3762 27.9996 42.3762Z" stroke="#0CBE24" stroke-width="3" stroke-miterlimit="10" stroke-linecap="round" stroke-linejoin="round"/>
<circle cx="28" cy="22.0391" r="1.64062" fill="#0CBE24"/>
<path d="M28 27.459V33.9612" stroke="#0CBE24" stroke-width="3" stroke-miterlimit="10" stroke-linecap="round" stroke-linejoin="round"/>
</g>
<defs>
<clipPath id="clip0_8172_1515">
<rect width="56" height="56" fill="white"/>
</clipPath>
</defs>
</svg>
