<svg width="56" height="56" viewBox="0 0 56 56" fill="none" xmlns="http://www.w3.org/2000/svg">
<g clip-path="url(#clip0_8172_1734)">
<path d="M9.36133 12.6426C11.1735 12.6426 12.6426 11.1735 12.6426 9.36133C12.6426 7.54914 11.1735 6.08008 9.36133 6.08008C7.54914 6.08008 6.08008 7.54914 6.08008 9.36133C6.08008 11.1735 7.54914 12.6426 9.36133 12.6426Z" stroke="#0CBE24" stroke-width="3" stroke-miterlimit="10"/>
<path d="M39.6777 19.6025C41.4899 19.6025 42.959 18.1335 42.959 16.3213C42.959 14.5091 41.4899 13.04 39.6777 13.04C37.8656 13.04 36.3965 14.5091 36.3965 16.3213C36.3965 18.1335 37.8656 19.6025 39.6777 19.6025Z" stroke="#0CBE24" stroke-width="3" stroke-miterlimit="10"/>
<path d="M16.3223 42.96C18.1345 42.96 19.6035 41.4909 19.6035 39.6787C19.6035 37.8665 18.1345 36.3975 16.3223 36.3975C14.5101 36.3975 13.041 37.8665 13.041 39.6787C13.041 41.4909 14.5101 42.96 16.3223 42.96Z" stroke="#0CBE24" stroke-width="3" stroke-miterlimit="10"/>
<path d="M46.6387 49.9199C48.4509 49.9199 49.9199 48.4509 49.9199 46.6387C49.9199 44.8265 48.4509 43.3574 46.6387 43.3574C44.8265 43.3574 43.3574 44.8265 43.3574 46.6387C43.3574 48.4509 44.8265 49.9199 46.6387 49.9199Z" stroke="#0CBE24" stroke-width="3" stroke-miterlimit="10"/>
<path d="M18.8594 41.7575C21.4767 43.4998 24.6195 44.5151 27.9995 44.5151C37.1208 44.5151 44.5151 37.1208 44.5151 27.9995C44.5151 24.6195 43.4998 21.4767 41.7575 18.8594" stroke="#0CBE24" stroke-width="3" stroke-miterlimit="10"/>
<path d="M37.1401 14.242C34.5228 12.4997 31.38 11.4844 28 11.4844C18.8787 11.4844 11.4844 18.8787 11.4844 28C11.4844 31.38 12.4997 34.5228 14.242 37.1401" stroke="#0CBE24" stroke-width="3" stroke-miterlimit="10"/>
<path d="M28 34.6719C31.6848 34.6719 34.6719 31.6848 34.6719 28C34.6719 24.3152 31.6848 21.3281 28 21.3281C24.3152 21.3281 21.3281 24.3152 21.3281 28C21.3281 31.6848 24.3152 34.6719 28 34.6719Z" stroke="#0CBE24" stroke-width="3" stroke-miterlimit="10"/>
<path d="M48.8112 44.1795C52.2883 39.7134 54.3594 34.0985 54.3594 28C54.3594 13.4421 42.558 1.64062 28.0001 1.64062C21.9015 1.64062 16.2867 3.71175 11.8206 7.18889" stroke="#0CBE24" stroke-width="3" stroke-miterlimit="10"/>
<path d="M7.18889 11.8203C3.71175 16.2864 1.64062 21.9013 1.64062 27.9998C1.64062 42.5577 13.4421 54.3592 28 54.3592C34.0985 54.3592 39.7134 52.2881 44.1795 48.8109" stroke="#0CBE24" stroke-width="3" stroke-miterlimit="10"/>
</g>
<defs>
<clipPath id="clip0_8172_1734">
<rect width="56" height="56" fill="white"/>
</clipPath>
</defs>
</svg>
