<svg width="60" height="60" viewBox="0 0 60 60" fill="none" xmlns="http://www.w3.org/2000/svg">
<g clip-path="url(#clip0_8172_1731)">
<path fill-rule="evenodd" clip-rule="evenodd" d="M30.0021 23.8516C33.3936 23.8516 36.1534 26.6103 36.1535 30.002C36.1535 33.3935 33.3936 36.1533 30.0021 36.1533C26.6106 36.1532 23.8517 33.3934 23.8517 30.002C23.8517 26.6104 26.6107 23.8517 30.0021 23.8516ZM30.0021 27.3672C28.5492 27.3673 27.3674 28.5489 27.3673 30.002C27.3673 31.4549 28.5492 32.6376 30.0021 32.6377C31.4551 32.6377 32.6378 31.455 32.6378 30.002C32.6378 28.5489 31.4551 27.3672 30.0021 27.3672Z" fill="#0CBE24"/>
<path fill-rule="evenodd" clip-rule="evenodd" d="M30.0021 0.00195312C34.0788 0.00210602 37.7889 3.31143 40.4484 9.32031C40.6649 9.80937 40.8722 10.3131 41.0714 10.8291C41.6178 10.7436 42.1577 10.6713 42.6896 10.6143C49.223 9.91266 53.9442 11.4713 55.9826 15.002C58.021 18.5326 57.0101 23.4002 53.1359 28.708C52.8206 29.14 52.4881 29.5716 52.1408 30.002C52.4881 30.4324 52.8206 30.8639 53.1359 31.2959C57.0101 36.6037 58.021 41.4714 55.9826 45.002C54.2638 47.9792 50.6375 49.5537 45.6251 49.5537C44.6935 49.5537 43.7137 49.4995 42.6896 49.3896C42.1577 49.3326 41.6178 49.2603 41.0714 49.1748C40.8722 49.6908 40.6649 50.1945 40.4484 50.6836C37.7889 56.6925 34.0788 60.0018 30.0021 60.002C25.9254 60.002 22.2154 56.6926 19.5558 50.6836C19.3393 50.1945 19.132 49.6907 18.9328 49.1748C18.3863 49.2602 17.8455 49.3326 17.3136 49.3896C16.2903 49.4994 15.3102 49.5537 14.379 49.5537C9.36611 49.5537 5.73967 47.9793 4.02065 45.002C1.98232 41.4715 2.99427 36.6036 6.8683 31.2959C7.18358 30.8639 7.51616 30.4324 7.86342 30.002C7.51616 29.5716 7.18358 29.14 6.8683 28.708C2.99427 23.4003 1.98232 18.5326 4.02065 15.002C6.05884 11.4714 10.7804 9.91312 17.3136 10.6143C17.8455 10.6713 18.3863 10.7436 18.9328 10.8291C19.1319 10.3131 19.3393 9.80937 19.5558 9.32031C22.2154 3.3113 25.9254 0.00195312 30.0021 0.00195312ZM30.0021 45.9033C27.4325 46.9862 24.8853 47.8457 22.4308 48.459C22.5415 48.7302 22.6545 48.9985 22.7706 49.2607C24.803 53.8526 27.4389 56.4863 30.0021 56.4863C32.5652 56.4861 35.2012 53.8524 37.2335 49.2607C37.3496 48.9985 37.4617 48.7301 37.5724 48.459C35.1181 47.8458 32.5714 46.9861 30.0021 45.9033ZM9.70717 33.3691C6.7468 37.425 5.78408 41.0243 7.06557 43.2441C8.34723 45.4639 11.9456 46.4293 16.9386 45.8936C17.2237 45.863 17.5127 45.8268 17.8029 45.7871C17.1068 43.3549 16.5785 40.7189 16.2316 37.9521C14.0089 36.2683 11.9899 34.4929 10.2316 32.6738C10.0521 32.9053 9.87615 33.1375 9.70717 33.3691ZM49.7716 32.6738C48.0134 34.4928 45.9951 36.2683 43.7726 37.9521C43.4256 40.7188 42.8974 43.355 42.2013 45.7871C42.4913 45.8268 42.7796 45.863 43.0646 45.8936C48.0577 46.4294 51.6559 45.464 52.9376 43.2441C54.2193 41.0243 53.2565 37.4251 50.296 33.3691C50.1269 33.1375 49.951 32.9052 49.7716 32.6738ZM20.2189 40.7324C20.5073 42.2647 20.8576 43.7361 21.2687 45.1279C22.6796 44.788 24.1296 44.3563 25.6007 43.8398C24.6885 43.3688 23.7779 42.8719 22.8732 42.3496C21.9684 41.8272 21.0831 41.2871 20.2189 40.7324ZM39.7843 40.7324C38.9202 41.287 38.0356 41.8273 37.131 42.3496C36.2263 42.8719 35.3158 43.3688 34.4035 43.8398C35.8745 44.3561 37.3237 44.788 38.7345 45.1279C39.1456 43.7361 39.4959 42.2648 39.7843 40.7324ZM30.0021 17.9346C28.2122 18.7454 26.4128 19.6706 24.631 20.6992C22.8492 21.728 21.1481 22.8241 19.5509 23.9688C19.3582 25.9241 19.2599 27.9446 19.2599 30.002C19.2599 32.0592 19.3582 34.0797 19.5509 36.0352C21.1481 37.1798 22.8492 38.276 24.631 39.3047C26.4128 40.3335 28.2122 41.2584 30.0021 42.0693C31.792 41.2584 33.5915 40.3334 35.3732 39.3047C37.1549 38.276 38.8551 37.1798 40.4523 36.0352C40.6449 34.0797 40.7443 32.0593 40.7443 30.002C40.7443 27.9446 40.6449 25.9242 40.4523 23.9688C38.8551 22.8241 37.1549 21.7279 35.3732 20.6992C33.5915 19.6706 31.792 18.7454 30.0021 17.9346ZM15.8175 26.8955C14.6348 27.9113 13.5359 28.9502 12.5363 30.002C13.536 31.0539 14.6348 32.0934 15.8175 33.1094C15.7694 32.0836 15.7443 31.0468 15.7443 30.002C15.7443 28.9574 15.7694 27.921 15.8175 26.8955ZM44.1867 26.8955C44.2348 27.921 44.2599 28.9574 44.2599 30.002C44.2599 31.0466 44.2348 32.0829 44.1867 33.1084C45.3693 32.0926 46.4683 31.0538 47.4679 30.002C46.4683 28.9502 45.3693 27.9113 44.1867 26.8955ZM14.3683 13.9648C10.718 13.9649 8.11508 14.942 7.06557 16.7598C5.78403 18.9797 6.74656 22.5795 9.70717 26.6357C9.87624 26.8673 10.0522 27.0987 10.2316 27.3301C11.9899 25.511 14.0089 23.7356 16.2316 22.0518C16.5785 19.285 17.1068 16.6491 17.8029 14.2168C17.5127 14.1771 17.2237 14.1409 16.9386 14.1104C16.0345 14.0135 15.1755 13.9648 14.3683 13.9648ZM45.6349 13.9648C44.8275 13.9649 43.969 14.0133 43.0646 14.1104C42.7796 14.1409 42.4913 14.1771 42.2013 14.2168C42.8975 16.6491 43.4256 19.2851 43.7726 22.0518C45.9951 23.7356 48.0134 25.511 49.7716 27.3301C49.9509 27.0987 50.127 26.8672 50.296 26.6357C53.2567 22.5795 54.2193 18.9796 52.9376 16.7598C51.8881 14.9422 49.2848 13.9648 45.6349 13.9648ZM21.2687 14.876C20.8576 16.2678 20.5073 17.7391 20.2189 19.2715C21.0831 18.717 21.9684 18.1766 22.8732 17.6543C23.7779 17.1319 24.6885 16.6351 25.6007 16.1641C24.1296 15.6476 22.6796 15.2158 21.2687 14.876ZM38.7345 14.876C37.3237 15.2158 35.8745 15.6477 34.4035 16.1641C35.3158 16.6352 36.2262 17.1319 37.131 17.6543C38.0356 18.1765 38.9202 18.717 39.7843 19.2715C39.4959 17.7391 39.1456 16.2678 38.7345 14.876ZM30.0021 3.51758C27.4389 3.51758 24.803 6.15133 22.7706 10.7432C22.6545 11.0054 22.5415 11.2738 22.4308 11.5449C24.8853 12.1582 27.4325 13.0175 30.0021 14.1006C32.5714 13.0177 35.1181 12.1581 37.5724 11.5449C37.4618 11.2738 37.3496 11.0054 37.2335 10.7432C35.2012 6.15146 32.5652 3.51777 30.0021 3.51758Z" fill="#0CBE24"/>
</g>
<defs>
<clipPath id="clip0_8172_1731">
<rect width="60" height="60" fill="white" transform="translate(0 0.00195312)"/>
</clipPath>
</defs>
</svg>
