<svg width="56" height="56" viewBox="0 0 56 56" fill="none" xmlns="http://www.w3.org/2000/svg">
<g clip-path="url(#clip0_8172_1713)">
<path d="M46.1562 8.09375H54.3594V48.4438C54.3594 51.7109 51.7109 54.3594 48.4438 54.3594H7.55617C4.28914 54.3594 1.64062 51.7109 1.64062 48.4438V8.09375H9.73438" stroke="#0CBE24" stroke-width="3" stroke-miterlimit="10"/>
<path d="M31.3906 8.09375H39.375" stroke="#0CBE24" stroke-width="3" stroke-miterlimit="10"/>
<path d="M16.5156 8.09375H24.6094" stroke="#0CBE24" stroke-width="3" stroke-miterlimit="10"/>
<path d="M18.9219 22.2031H9.84375V34.0156H18.9219V22.2031Z" stroke="#0CBE24" stroke-width="3" stroke-miterlimit="10"/>
<path d="M28 22.2031H18.9219V34.0156H28V22.2031Z" stroke="#0CBE24" stroke-width="3" stroke-miterlimit="10"/>
<path d="M37.0781 22.2031H28V34.0156H37.0781V22.2031Z" stroke="#0CBE24" stroke-width="3" stroke-miterlimit="10"/>
<path d="M46.1562 22.2031H37.0781V34.0156H46.1562V22.2031Z" stroke="#0CBE24" stroke-width="3" stroke-miterlimit="10"/>
<path d="M18.9219 34.0156H9.84375V45.8281H18.9219V34.0156Z" stroke="#0CBE24" stroke-width="3" stroke-miterlimit="10"/>
<path d="M28 34.0156H18.9219V45.8281H28V34.0156Z" stroke="#0CBE24" stroke-width="3" stroke-miterlimit="10"/>
<path d="M37.0781 34.0156H28V45.8281H37.0781V34.0156Z" stroke="#0CBE24" stroke-width="3" stroke-miterlimit="10"/>
<path d="M46.1562 34.0156H37.0781V45.8281H46.1562V34.0156Z" stroke="#0CBE24" stroke-width="3" stroke-miterlimit="10"/>
<path d="M13.3125 1.64062C11.5004 1.64062 10.0312 3.10964 10.0312 4.92188V11.2656C10.0312 13.0779 11.5004 14.5469 13.3125 14.5469C15.1246 14.5469 16.5937 13.0779 16.5937 11.2656V4.92188C16.5937 3.10964 15.1246 1.64062 13.3125 1.64062Z" stroke="#0CBE24" stroke-width="3" stroke-miterlimit="10"/>
<path d="M28 1.64062C26.1878 1.64062 24.7188 3.10964 24.7188 4.92188V11.2656C24.7188 13.0779 26.1878 14.5469 28 14.5469C29.8122 14.5469 31.2812 13.0779 31.2812 11.2656V4.92188C31.2812 3.10964 29.8122 1.64062 28 1.64062Z" stroke="#0CBE24" stroke-width="3" stroke-miterlimit="10"/>
<path d="M42.6895 1.64062C40.8772 1.64062 39.4082 3.10964 39.4082 4.92188V11.2656C39.4082 13.0779 40.8772 14.5469 42.6895 14.5469C44.5016 14.5469 45.9707 13.0779 45.9707 11.2656V4.92188C45.9707 3.10964 44.5017 1.64062 42.6895 1.64062Z" stroke="#0CBE24" stroke-width="3" stroke-miterlimit="10"/>
</g>
<defs>
<clipPath id="clip0_8172_1713">
<rect width="56" height="56" fill="white"/>
</clipPath>
</defs>
</svg>
