<svg width="40" height="40" viewBox="0 0 40 40" fill="none" xmlns="http://www.w3.org/2000/svg">
<g clip-path="url(#clip0_8172_3524)">
<path d="M36.815 24.1814C37.1013 24.0606 37.4241 24.0585 37.7122 24.1753C37.9999 24.2925 38.2298 24.519 38.3506 24.8056L39.8298 28.3108C40.0811 28.907 39.8018 29.5942 39.2057 29.8459C39.057 29.9088 38.902 29.9384 38.7504 29.9384C38.2933 29.9383 37.859 29.6694 37.6701 29.2218L37.325 28.4041C34.3471 35.4364 27.42 40.0776 19.7022 40.0777C10.976 40.0777 3.35539 34.1772 1.17094 25.7287C1.00896 25.1023 1.38566 24.4629 2.01209 24.3008C2.63862 24.1393 3.27799 24.5155 3.44004 25.1424C5.35719 32.556 12.0444 37.7339 19.7022 37.7339C26.5054 37.7339 32.609 33.624 35.2026 27.4058L34.2213 27.8203C33.625 28.072 32.9376 27.7924 32.6861 27.1962C32.4345 26.5999 32.7139 25.9125 33.3098 25.661L36.815 24.1814Z" fill="#0CBE24"/>
<path fill-rule="evenodd" clip-rule="evenodd" d="M21.4405 7.45616C21.7557 7.07542 22.2757 6.93313 22.7404 7.10026C23.2055 7.2678 23.5156 7.70874 23.5156 8.20312V18.8277H27.786C28.2398 18.8277 28.6528 19.09 28.8463 19.5004C29.0395 19.9112 28.9785 20.3965 28.6892 20.7465L18.8723 32.6211C18.6453 32.8958 18.3114 33.0464 17.9687 33.0464C17.836 33.0464 17.7016 33.024 17.572 32.977C17.107 32.8097 16.797 32.3689 16.7972 31.8746V21.2496H12.5268C12.0731 21.2495 11.66 20.9875 11.4665 20.5768C11.2733 20.1664 11.3344 19.6809 11.6236 19.3312L21.4405 7.45616ZM15.016 18.9058H17.9687C18.6156 18.9058 19.1405 19.4305 19.1406 20.0777V28.6181L25.2964 21.1714H22.3437C21.6965 21.1714 21.1718 20.6468 21.1718 19.9996V11.4596L15.016 18.9058Z" fill="#0CBE24"/>
<path d="M20.1419 0.078125C28.8678 0.078125 36.4882 5.97859 38.6727 14.4271C38.8346 15.0536 38.458 15.6926 37.8315 15.8546C37.7333 15.8799 37.6343 15.8924 37.5373 15.8924C37.0158 15.8923 36.5403 15.5417 36.4036 15.0135C34.4865 7.59982 27.7993 2.42188 20.1419 2.42188C13.4446 2.42195 7.42534 6.40382 4.76513 12.4596L5.62233 12.0977C6.21864 11.8462 6.90646 12.1255 7.15792 12.7218C7.40969 13.3181 7.1298 14.0056 6.53379 14.2574L3.02858 15.7365C2.88312 15.7981 2.72819 15.829 2.57329 15.829C2.42349 15.829 2.27345 15.8003 2.13188 15.7426C1.84379 15.6257 1.61428 15.3987 1.49343 15.1124L0.014259 11.6072C-0.237125 11.0112 0.0421136 10.3238 0.638391 10.072C1.23468 9.82066 1.92179 10.1002 2.17355 10.6962L2.56895 11.6337C5.5743 4.66749 12.4671 0.0782044 20.1419 0.078125Z" fill="#0CBE24"/>
</g>
<defs>
<clipPath id="clip0_8172_3524">
<rect width="40" height="40" fill="white"/>
</clipPath>
</defs>
</svg>
