<svg width="37" height="36" viewBox="0 0 37 36" fill="none" xmlns="http://www.w3.org/2000/svg">
<path fill-rule="evenodd" clip-rule="evenodd" d="M2.46987 35.9145C1.7932 36.0462 1.13653 35.6045 1.0032 34.9278C0.871532 34.2512 1.3132 33.5928 1.98987 33.4612C1.98987 33.4612 14.1699 31.0295 22.8415 17.3512C23.2099 16.7695 23.9832 16.5962 24.5665 16.9662C25.1482 17.3345 25.3215 18.1078 24.9532 18.6912C15.6315 33.3928 2.46987 35.9145 2.46987 35.9145Z" fill="#0CBE24"/>
<path fill-rule="evenodd" clip-rule="evenodd" d="M14.4431 13.2877C14.7548 13.9027 14.5098 14.656 13.8948 14.9693C13.2798 15.281 12.5264 15.036 12.2131 14.421C11.4714 12.9593 10.7914 11.4127 10.2081 9.78935C9.97475 9.13935 10.3131 8.42435 10.9631 8.19101C11.6114 7.95768 12.3281 8.29601 12.5614 8.94435C13.1081 10.4677 13.7464 11.9177 14.4431 13.2877Z" fill="#0CBE24"/>
<path fill-rule="evenodd" clip-rule="evenodd" d="M35.1046 4.36988C35.1046 4.36988 36.6463 10.1882 35.7246 16.6832C35.0963 21.1132 33.3246 25.8382 29.248 29.3215C24.9696 32.9782 18.0896 35.3099 7.1113 34.2666C6.50464 34.2082 6.0263 33.7199 5.98297 33.1115C5.98297 33.1115 5.01463 19.4732 14.6946 10.6582C18.8213 6.89822 24.8846 3.98822 33.8196 3.43988C34.4146 3.40322 34.953 3.79322 35.1046 4.36988ZM32.9096 6.01488C25.278 6.66988 20.0046 9.20322 16.378 12.5065C9.12464 19.1116 8.45964 28.7015 8.4513 31.8715C17.853 32.5849 23.858 30.6399 27.6246 27.4215C31.193 24.3715 32.698 20.2115 33.2496 16.3315C33.8763 11.9165 33.2696 7.83988 32.9096 6.01488Z" fill="#0CBE24"/>
<path fill-rule="evenodd" clip-rule="evenodd" d="M20.1465 8.08308C20.5715 8.62641 20.4765 9.41141 19.9348 9.83808C19.3915 10.2647 18.6048 10.1697 18.1798 9.62641C16.0315 6.88974 12.7198 4.45141 7.71646 2.82641C7.20313 4.03141 6.36979 6.28141 5.98479 8.93974C5.42813 12.7897 5.80479 17.5414 9.73313 21.0797C10.2465 21.5414 10.2865 22.3314 9.82479 22.8447C9.36313 23.3581 8.57313 23.3981 8.05979 22.9364C3.40479 18.7431 2.85146 13.1464 3.51146 8.58141C4.15146 4.14974 5.92813 0.736409 5.92813 0.736409C6.20146 0.206409 6.81146 -0.0552576 7.38479 0.111409C13.5998 1.90974 17.5948 4.83141 20.1465 8.08308Z" fill="#0CBE24"/>
</svg>
