<svg width="65" height="64" viewBox="0 0 65 64" fill="none" xmlns="http://www.w3.org/2000/svg">
<g clip-path="url(#clip0_8172_2406)">
<path d="M47.8691 6.88965C48.6991 6.06264 50.0422 6.06285 50.8711 6.8916L64.1279 20.1484C64.9587 20.9792 64.9566 22.3275 64.125 23.1562L58.9004 28.3623C57.6627 32.7276 55.6013 36.0162 53.8086 38.2578C52.9078 39.3842 52.0745 40.2471 51.4482 40.8496C51.1352 41.1507 50.874 41.3868 50.6826 41.5576C50.586 41.6438 50.5103 41.7112 50.4521 41.7637C50.4455 41.7696 50.4386 41.7749 50.4326 41.7803C50.7233 43.9767 49.763 46.2026 47.8301 47.4697L34.5859 56.1523C31.0218 58.489 26.3589 58.2066 23.1035 55.46L17.3223 50.582C13.3903 47.2646 10.9917 43.4302 9.56543 40.4023C8.85223 38.8883 8.3819 37.5746 8.08398 36.626C7.935 36.1516 7.82904 35.7679 7.75781 35.4971C7.7223 35.362 7.69486 35.255 7.67578 35.1797C7.66616 35.1417 7.65879 35.1132 7.65332 35.0928C7.64562 35.064 7.64639 35.0691 7.65234 35.083L7.64453 35.0664L7.63965 35.0479C6.51293 30.7308 4.10944 26.5676 0.87207 23.3301C0.0425222 22.5003 0.0423769 21.1549 0.87207 20.3252L14.1289 7.06934C14.9585 6.23963 16.3045 6.23992 17.1338 7.06934L22.0986 12.0342L31.8574 13.9092C34.4416 11.7781 37.1382 11.2222 39.2568 11.2041C40.3272 11.195 41.2497 11.3231 41.9355 11.4531C42.2784 11.5181 42.5629 11.584 42.7744 11.6328C42.8812 11.6575 42.9667 11.6768 43.0332 11.6904C43.0382 11.6915 43.0432 11.6915 43.0479 11.6924L47.8691 6.88965ZM5.32324 21.8828C8.35495 25.381 10.6112 29.6036 11.752 33.9746H11.751C11.7558 33.99 11.7605 34.0037 11.7627 34.0117C11.7686 34.0337 11.7768 34.0625 11.7852 34.0957C11.8022 34.163 11.8251 34.255 11.8555 34.3711C11.9163 34.6034 12.0066 34.9318 12.1338 35.3389C12.3883 36.1533 12.7915 37.2834 13.4033 38.5859C14.6274 41.1915 16.686 44.4845 20.0635 47.334L25.8438 52.2119C27.6455 53.7323 30.2837 53.8911 32.2559 52.5986L45.5 43.916C46.3613 43.3513 46.4867 42.138 45.7588 41.4092L41.2393 36.9238C37.4118 33.1104 35.5449 31.2039 34.582 30.2217C33.9338 29.5604 33.708 29.3306 33.5703 29.2178C33.5106 29.1689 33.4705 29.1454 33.4082 29.1113C33.371 29.091 33.3271 29.0641 33.2686 29.0312L31.4785 30.8213C27.7262 34.5733 21.6221 34.5731 17.8701 30.8213C17.0403 29.9915 17.0403 28.6462 17.8701 27.8164L28.1602 17.5254L20.6582 16.0859C20.2408 16.0057 19.8571 15.8015 19.5566 15.501L15.6309 11.5752L5.32324 21.8828ZM45.2441 15.5039C44.9951 15.752 44.6884 15.9347 44.3516 16.0352C44.0146 16.1356 43.6578 16.1504 43.3135 16.0791L41.0068 15.6016C38.4579 15.0735 35.8384 15.857 33.998 17.6973L22.6875 29.0078C24.6212 29.7744 26.9124 29.3774 28.4736 27.8164L31.543 24.7471C32.3461 23.9437 33.6394 23.9147 34.4785 24.6807L34.7715 24.9297C34.9728 25.0889 35.1853 25.2334 35.4072 25.3623L35.7471 25.5439L35.749 25.5449C35.7539 25.5474 35.7581 25.5492 35.7676 25.5537C35.7733 25.5564 35.7809 25.5603 35.7891 25.5645C36.7914 26.0422 37.9176 26.197 39.0117 26.0078C40.1058 25.8186 41.1148 25.2945 41.8984 24.5078L42.0596 24.3623C42.8942 23.6814 44.1254 23.7299 44.9033 24.5078C45.733 25.3376 45.7331 26.6829 44.9033 27.5127C43.6182 28.798 42.0596 29.6454 40.4141 30.0537L48.3184 37.958C51.5333 34.8964 53.8187 31.0317 54.9453 26.7188C55.041 26.3523 55.2327 26.0174 55.501 25.75L59.6172 21.6475L49.3662 11.3965L45.2441 15.5039Z" fill="#0CBE24" stroke="#0CBE24" stroke-width="0.5"/>
</g>
<defs>
<clipPath id="clip0_8172_2406">
<rect width="64" height="64" fill="white" transform="translate(0.5)"/>
</clipPath>
</defs>
</svg>
