<svg width="65" height="64" viewBox="0 0 65 64" fill="none" xmlns="http://www.w3.org/2000/svg">
<g clip-path="url(#clip0_8172_2411)">
<path fill-rule="evenodd" clip-rule="evenodd" d="M46.1643 -0.125C47.2688 -0.125 48.1642 0.770576 48.1643 1.875V2.75488H62.6262C63.4201 2.75492 64.1394 3.22512 64.4583 3.95215C64.7769 4.67932 64.6349 5.52647 64.097 6.11035L60.3997 10.123L64.0384 13.75C64.6113 14.3214 64.7838 15.1818 64.4749 15.9297C64.1657 16.6778 63.4357 17.166 62.6262 17.166H48.1643V23.625H55.1243C56.2288 23.625 57.1242 24.5205 57.1243 25.625V62.125C57.1243 63.2296 56.2289 64.125 55.1243 64.125H37.5237H2.9573C1.8529 64.1248 0.957301 63.2294 0.957301 62.125V50.7852C0.957301 49.6807 1.8529 48.7854 2.9573 48.7852H18.2395V40.2852C18.2395 39.1809 19.1353 38.2856 20.2395 38.2852H35.5237V25.625C35.5238 24.5206 36.4193 23.6252 37.5237 23.625H44.1643V1.875C44.1645 0.770698 45.06 -0.124802 46.1643 -0.125ZM4.9573 60.125H18.2395V52.7852H4.9573V60.125ZM22.2395 60.125H35.5227V42.2852H22.2395V60.125ZM39.5237 60.125H53.1243V27.625H39.5237V60.125ZM48.1643 13.166H57.7874L56.2141 11.5977C55.4541 10.8394 55.428 9.61582 56.1555 8.82617L58.0637 6.75488H48.1643V13.166Z" fill="#0CBE24"/>
<path d="M30.9446 7.05371C30.9845 7.05423 31.0242 7.0567 31.0637 7.05957C31.0866 7.06121 31.1094 7.06203 31.1321 7.06445C31.1853 7.07016 31.2381 7.07802 31.2903 7.08789C31.311 7.0918 31.3313 7.09701 31.3518 7.10156C31.3853 7.10899 31.4185 7.11687 31.4514 7.12598C31.479 7.1336 31.5063 7.14161 31.5335 7.15039C31.5667 7.16115 31.5995 7.17309 31.6321 7.18555C31.6491 7.19203 31.6661 7.19814 31.6829 7.20508C31.7306 7.22482 31.7775 7.24621 31.8235 7.26953C31.8494 7.28267 31.8744 7.29729 31.8997 7.31152C31.9277 7.32729 31.9555 7.34326 31.9827 7.36035C31.9988 7.37049 32.0147 7.38101 32.0305 7.3916C32.0703 7.41818 32.109 7.44619 32.1468 7.47559C32.155 7.48202 32.164 7.48758 32.1721 7.49414C32.2147 7.52834 32.2554 7.56484 32.2952 7.60254C32.3109 7.61741 32.3258 7.63304 32.3411 7.64844C32.3665 7.67413 32.3913 7.70041 32.4153 7.72754C32.4311 7.7453 32.447 7.76289 32.4622 7.78125C32.4836 7.80718 32.5036 7.83422 32.5237 7.86133C32.5892 7.94942 32.6477 8.04317 32.6985 8.14258C32.7022 8.14983 32.7066 8.15675 32.7102 8.16406L35.7903 14.377C36.281 15.3665 35.8766 16.5669 34.887 17.0576C33.8977 17.5477 32.698 17.1433 32.2073 16.1543L30.9671 13.6553C28.3915 18.6463 25.0132 23.3289 20.8323 27.5098C15.7644 32.5778 9.95773 36.4688 3.75613 39.1787L3.15457 39.4375L2.96218 39.5078C1.99357 39.8062 0.936919 39.3285 0.533473 38.375C0.130264 37.4215 0.522916 36.3301 1.4114 35.8428L1.59597 35.7539L2.70925 35.2676C8.25294 32.7668 13.4471 29.2388 18.0042 24.6816C21.8845 20.8013 25.0155 16.4596 27.4036 11.8359L24.6624 12.4131L24.4602 12.4453C23.4523 12.5528 22.5066 11.8814 22.2932 10.8682C22.0801 9.85484 22.675 8.85856 23.6409 8.55078L23.8382 8.49902L30.5071 7.0957C30.5119 7.0947 30.517 7.09374 30.5218 7.09277C30.5774 7.08151 30.6337 7.07195 30.6907 7.06543C30.7014 7.06418 30.7122 7.06357 30.7229 7.0625C30.7675 7.05813 30.8125 7.05509 30.8577 7.05371C30.8677 7.05341 30.878 7.05386 30.888 7.05371C30.9069 7.05339 30.9258 7.05349 30.9446 7.05371Z" fill="#0CBE24"/>
</g>
<defs>
<clipPath id="clip0_8172_2411">
<rect width="64" height="64" fill="white" transform="translate(0.5)"/>
</clipPath>
</defs>
</svg>
