<svg width="65" height="64" viewBox="0 0 65 64" fill="none" xmlns="http://www.w3.org/2000/svg">
<g clip-path="url(#clip0_8172_2401)">
<path fill-rule="evenodd" clip-rule="evenodd" d="M32.2051 12.6328C35.5025 12.8001 38.1248 15.527 38.125 18.8662V30.125H49.875C53.0505 30.125 55.6249 32.6995 55.625 35.875C55.625 36.7432 55.4305 37.5657 55.0859 38.3037C56.8945 39.2726 58.125 41.1799 58.125 43.375C58.125 45.174 57.2976 46.7786 56.0039 47.833C56.5553 48.7155 56.875 49.7577 56.875 50.875C56.875 53.4785 55.1439 55.6758 52.7705 56.3838C52.9996 57.0043 53.125 57.675 53.125 58.375C53.125 61.5506 50.5506 64.125 47.375 64.125H26.958C25.2845 64.1249 23.6533 63.6161 22.2793 62.6699L22.0088 62.4746L19.209 60.375H15.625V62.125C15.625 63.1606 14.8378 64.012 13.8291 64.1143L13.625 64.125H2.375C1.33935 64.125 0.488005 63.3378 0.385742 62.3291L0.375 62.125V29.625C0.375051 28.5205 1.27046 27.625 2.375 27.625H13.625C14.7295 27.625 15.6249 28.5205 15.625 29.625V31.375H20.7441C21.5368 31.3749 22.2303 30.842 22.4346 30.0762L25.8525 17.2578L25.9258 17.0049C26.7359 14.4093 29.1444 12.625 31.8838 12.625L32.2051 12.6328ZM4.375 60.125H11.625V31.625H4.375V60.125ZM31.8838 16.625C30.932 16.625 30.0914 17.2251 29.7744 18.1084L29.7178 18.2891L26.2998 31.1064C25.6288 33.6236 23.349 35.3749 20.7441 35.375H15.625V56.375H19.875C20.3077 56.375 20.729 56.5158 21.0752 56.7754L24.4082 59.2754L24.6914 59.4697C25.368 59.8964 26.1535 60.1249 26.958 60.125H36.8975C36.7213 59.5731 36.625 58.9853 36.625 58.375C36.625 57.2579 36.9439 56.2154 37.4951 55.333C36.2018 54.2786 35.375 52.6737 35.375 50.875C35.375 49.7579 35.6939 48.7154 36.2451 47.833C34.9518 46.7786 34.125 45.1737 34.125 43.375C34.125 41.1802 35.355 39.2727 37.1631 38.3037C36.8186 37.5658 36.625 36.7431 36.625 35.875C36.625 35.2647 36.7213 34.6769 36.8975 34.125H33.625C32.5204 34.125 31.625 33.2296 31.625 32.125C31.625 31.0204 32.5204 30.125 33.625 30.125H34.125V18.8662C34.1248 17.7056 33.2425 16.7513 32.1123 16.6367L31.8838 16.625ZM42.375 56.625C41.4086 56.625 40.625 57.4086 40.625 58.375C40.625 59.3414 41.4086 60.125 42.375 60.125H47.375C48.3414 60.125 49.125 59.3414 49.125 58.375C49.125 57.4086 48.3414 56.625 47.375 56.625H42.375ZM41.125 49.125C40.1586 49.125 39.375 49.9086 39.375 50.875C39.375 51.8414 40.1586 52.625 41.125 52.625H51.125C52.0914 52.625 52.875 51.8414 52.875 50.875C52.875 49.9086 52.0914 49.125 51.125 49.125H41.125ZM39.875 41.625C38.9086 41.625 38.125 42.4086 38.125 43.375C38.125 44.3414 38.9086 45.125 39.875 45.125H52.375C53.3414 45.125 54.125 44.3414 54.125 43.375C54.125 42.4086 53.3414 41.625 52.375 41.625H39.875ZM42.375 34.125C41.4086 34.125 40.6251 34.9086 40.625 35.875C40.625 36.8414 41.4086 37.625 42.375 37.625H49.875C50.8414 37.625 51.625 36.8414 51.625 35.875C51.6249 34.9086 50.8414 34.125 49.875 34.125H42.375Z" fill="#0CBE24"/>
<path fill-rule="evenodd" clip-rule="evenodd" d="M52.625 -0.125C53.3862 -0.124989 54.081 0.307704 54.418 0.990234L57.043 6.30859L62.9121 7.16113C63.6654 7.2706 64.2921 7.79852 64.5273 8.52246C64.7478 9.20126 64.5891 9.94293 64.1191 10.4707L64.0205 10.5732L59.7725 14.7129L60.7764 20.5586C60.9049 21.3088 60.5962 22.0673 59.9805 22.5146C59.4033 22.9338 58.6498 23.012 58.0029 22.7285L57.875 22.667L52.625 19.9072L47.375 22.667C46.7013 23.021 45.8843 22.962 45.2686 22.5146C44.6529 22.0672 44.3451 21.3087 44.4736 20.5586L45.4756 14.7129L41.2285 10.5732C40.6835 10.0419 40.4875 9.24639 40.7227 8.52246C40.958 7.79853 41.5846 7.2706 42.3379 7.16113L48.2061 6.30859L50.8311 0.990234C51.168 0.307557 51.8637 -0.125 52.625 -0.125ZM51.3281 9.02148C51.055 9.57483 50.5431 9.96968 49.9434 10.0947L49.8223 10.1162L46.9229 10.5381L49.0215 12.582C49.4927 13.0415 49.7079 13.7039 49.5967 14.3525L49.1006 17.2402L51.6943 15.877C52.2769 15.5707 52.9731 15.5707 53.5557 15.877L56.1484 17.2402L55.6533 14.3525C55.5421 13.7039 55.7573 13.0415 56.2285 12.582L58.3262 10.5381L55.4277 10.1162C54.8172 10.0275 54.2838 9.66224 53.9795 9.13086L53.9219 9.02148L52.624 6.39453L51.3281 9.02148Z" fill="#0CBE24"/>
</g>
<defs>
<clipPath id="clip0_8172_2401">
<rect width="64" height="64" fill="white" transform="translate(0.5)"/>
</clipPath>
</defs>
</svg>
