<svg width="0" height="0" class="hidden">
  <symbol fill="none" xmlns="http://www.w3.org/2000/svg" viewBox="0 0 59 59" id="ic_arr_hor">
    <path d="M18.8293 29.7348C18.8293 30.1996 19.007 30.6649 19.3618 31.0198L37.5379 49.1958C38.2481 49.9061 39.3982 49.9061 40.108 49.1958C40.8177 48.4856 40.8182 47.3355 40.108 46.6258L23.217 29.7348L40.108 12.8438C40.8182 12.1336 40.8182 10.9835 40.108 10.2737C39.3977 9.56394 38.2476 9.56348 37.5379 10.2737L19.3618 28.4497C19.007 28.8046 18.8293 29.2699 18.8293 29.7348Z" fill="currentColor"></path>
  </symbol>
  <symbol fill="none" xmlns="http://www.w3.org/2000/svg" viewBox="0 0 23 22" id="ic_arr_ver">
    <path d="M11.5 15.125C11.3162 15.125 11.1322 15.0578 10.9919 14.9236L3.80439 8.04861C3.52354 7.77996 3.52354 7.34495 3.80439 7.07648C4.08524 6.80801 4.54003 6.80784 4.8207 7.07648L11.5 13.4654L18.1794 7.07648C18.4602 6.80784 18.915 6.80784 19.1957 7.07648C19.4764 7.34512 19.4766 7.78014 19.1957 8.04861L12.0082 14.9236C11.8679 15.0578 11.6839 15.125 11.5 15.125Z" fill="currentColor"></path>
  </symbol>
  <symbol fill="none" xmlns="http://www.w3.org/2000/svg" viewBox="0 0 17 16" id="ic_arrow_ver">
    <path d="M9.26427 15.787L15.5673 9.48393C15.8513 9.19995 15.8513 8.73944 15.5673 8.45542C15.2832 8.17139 14.8228 8.17139 14.5387 8.45542L9.47712 13.517L9.47644 0.727175C9.47644 0.325575 9.15082 -2.89783e-07 8.74917 -3.07339e-07C8.34752 -3.24896e-07 8.0219 0.325672 8.02195 0.727321L8.02262 13.5168L2.96119 8.45547C2.67717 8.17144 2.21671 8.17144 1.93269 8.45547C1.79068 8.59743 1.71964 8.78356 1.71964 8.9697C1.71964 9.15583 1.79068 9.34196 1.93269 9.48393L8.23576 15.787C8.37215 15.9233 8.55714 16 8.75002 16C8.9429 16 9.12788 15.9233 9.26427 15.787Z" fill="currentColor"></path>
  </symbol>
  <symbol fill="none" xmlns="http://www.w3.org/2000/svg" viewBox="0 0 18 18" id="ic_close">
    <path fill-rule="evenodd" clip-rule="evenodd" d="M0.685475 0.685963C0.868564 0.503102 1.11675 0.400391 1.37552 0.400391C1.63428 0.400391 1.88247 0.503102 2.06556 0.685963L17.6891 16.3095C17.7851 16.3989 17.862 16.5067 17.9154 16.6265C17.9687 16.7463 17.9974 16.8756 17.9998 17.0067C18.0021 17.1378 17.9779 17.268 17.9288 17.3896C17.8797 17.5112 17.8066 17.6217 17.7139 17.7144C17.6212 17.8071 17.5107 17.8802 17.3891 17.9293C17.2675 17.9784 17.1373 18.0026 17.0062 18.0002C16.8751 17.9979 16.7458 17.9692 16.626 17.9159C16.5062 17.8625 16.3984 17.7855 16.309 17.6896L0.685475 2.06604C0.502613 1.88296 0.399902 1.63477 0.399902 1.376C0.399902 1.11724 0.502613 0.869052 0.685475 0.685963Z" fill="currentColor"></path>
    <path fill-rule="evenodd" clip-rule="evenodd" d="M17.7135 0.686756C17.8969 0.870353 17.9999 1.11923 17.9999 1.37871C17.9999 1.6382 17.8969 1.88707 17.7135 2.07067L2.04662 17.7376C1.861 17.9106 1.61549 18.0047 1.36181 18.0002C1.10814 17.9958 0.866101 17.893 0.686698 17.7136C0.507295 17.5342 0.404531 17.2922 0.400055 17.0385C0.395579 16.7848 0.489741 16.5393 0.662704 16.3537L16.3296 0.686756C16.5132 0.503387 16.7621 0.400391 17.0216 0.400391C17.2811 0.400391 17.5299 0.503387 17.7135 0.686756Z" fill="currentColor"></path>
  </symbol>
  <symbol fill="none" xmlns="http://www.w3.org/2000/svg" viewBox="0 0 20 21" id="ic_close2">
    <path d="M19.2694 6.73801C18.782 5.53184 18.0495 4.40098 17.0741 3.42582C16.0989 2.45047 14.968 1.71789 13.7618 1.23051C12.5555 0.742969 11.2739 0.5 9.99281 0.5C8.71363 0.5 7.43441 0.744102 6.23066 1.23219C5.02703 1.72012 3.89891 2.45266 2.92586 3.42586C1.95262 4.39895 1.22008 5.52711 0.732188 6.73082C0.244102 7.93453 0 9.21375 0 10.493C0 11.7741 0.243047 13.0556 0.730508 14.262C1.21789 15.4681 1.95047 16.599 2.92582 17.5742C3.90098 18.5495 5.03184 19.2821 6.23801 19.7695C7.44434 20.257 8.7259 20.5 10.0069 20.5C11.2861 20.5 12.5654 20.2559 13.7692 19.7679C14.9729 19.28 16.1011 18.5475 17.0742 17.5742C18.0474 16.6011 18.78 15.4729 19.2679 14.2692C19.7559 13.0654 20 11.7862 20 10.5069C20 9.2259 19.757 7.94434 19.2694 6.73801ZM18.0317 13.768C17.609 14.8103 16.9763 15.7855 16.1309 16.6309C15.2855 17.4762 14.3103 18.1089 13.268 18.5317C12.2259 18.9543 11.1165 19.1661 10.0069 19.1661C8.89453 19.1661 7.78242 18.9549 6.73785 18.5327C5.69316 18.1104 4.71598 17.4777 3.86906 16.631C3.02227 15.784 2.38961 14.8068 1.9673 13.7621C1.54512 12.7175 1.33395 11.6054 1.33398 10.493C1.33395 9.38344 1.54582 8.27418 1.96836 7.23199C2.39105 6.18969 3.02375 5.21449 3.8691 4.36906C4.71453 3.52375 5.68969 2.89105 6.73195 2.46832C7.77406 2.04574 8.88332 1.83387 9.99289 1.83387C11.1053 1.83387 12.2175 2.045 13.2621 2.46719C14.3068 2.88949 15.284 3.52215 16.131 4.36898C16.9778 5.21594 17.6104 6.19309 18.0328 7.23777C18.455 8.28234 18.6661 9.39445 18.6661 10.5068C18.6661 11.6165 18.4543 12.7258 18.0317 13.768Z" fill="currentColor"></path>
    <path d="M10.9235 10.5005L14.1536 7.27031C14.4085 7.01543 14.4085 6.60227 14.1536 6.34738C13.8988 6.09254 13.4856 6.09254 13.2307 6.34738L10.0005 9.57762L6.77033 6.34742C6.51544 6.09258 6.10228 6.09258 5.8474 6.34742C5.59251 6.60227 5.59255 7.01547 5.8474 7.27035L9.07759 10.5005L5.8474 13.7307C5.59255 13.9855 5.59255 14.3988 5.8474 14.6537C6.10228 14.9085 6.51544 14.9085 6.77033 14.6537L10.0005 11.4234L13.2307 14.6536C13.4856 14.9085 13.8988 14.9085 14.1536 14.6536C14.4085 14.3988 14.4085 13.9856 14.1536 13.7307L10.9235 10.5005Z" fill="currentColor"></path>
  </symbol>
  <symbol fill="none" xmlns="http://www.w3.org/2000/svg" viewBox="0 0 16 16" id="ic_date">
    <path d="M7.99961 12.2871C8.22052 12.2871 8.39961 12.4662 8.39961 12.6871V13.6246C8.39961 13.8455 8.22052 14.0246 7.99961 14.0246C7.7787 14.0246 7.59961 13.8455 7.59961 13.6246V12.6871C7.59961 12.4662 7.7787 12.2871 7.99961 12.2871Z" fill="currentColor"></path>
    <path d="M3.69062 11.6457C3.87369 11.4626 4.17084 11.4626 4.35391 11.6457C4.53681 11.8288 4.53686 12.1256 4.35391 12.3086C4.17084 12.4917 3.87369 12.4917 3.69062 12.3086C3.50767 12.1256 3.50772 11.8288 3.69062 11.6457Z" fill="currentColor"></path>
    <path d="M11.6453 11.6457C11.8284 11.4626 12.1255 11.4626 12.3086 11.6457C12.4915 11.8288 12.4915 12.1256 12.3086 12.3086C12.1255 12.4917 11.8284 12.4917 11.6453 12.3086C11.4624 12.1256 11.4624 11.8288 11.6453 11.6457Z" fill="currentColor"></path>
    <path d="M7.99961 4.78711C8.22052 4.78711 8.39961 4.9662 8.39961 5.18711V7.83398L11.0949 10.5293L11.1223 10.5598C11.2504 10.7169 11.2414 10.9485 11.0949 11.0949C10.9485 11.2414 10.7169 11.2504 10.5598 11.1223L10.5293 11.0949L7.7168 8.28242C7.65114 8.21676 7.61064 8.13066 7.60156 8.03906L7.59961 7.99961V5.18711C7.59961 4.9662 7.7787 4.78711 7.99961 4.78711Z" fill="currentColor"></path>
    <path d="M3.31211 7.59961C3.53302 7.59961 3.71211 7.7787 3.71211 7.99961C3.71211 8.22052 3.53302 8.39961 3.31211 8.39961H2.37461C2.1537 8.39961 1.97461 8.22052 1.97461 7.99961C1.97461 7.7787 2.1537 7.59961 2.37461 7.59961H3.31211Z" fill="currentColor"></path>
    <path d="M13.6246 7.59961C13.8455 7.59961 14.0246 7.7787 14.0246 7.99961C14.0246 8.22052 13.8455 8.39961 13.6246 8.39961H12.6871C12.4662 8.39961 12.2871 8.22052 12.2871 7.99961C12.2871 7.7787 12.4662 7.59961 12.6871 7.59961H13.6246Z" fill="currentColor"></path>
    <path d="M3.69062 3.69062C3.87369 3.50756 4.17087 3.50756 4.35391 3.69062C4.53686 3.87365 4.53681 4.17046 4.35391 4.35352C4.17087 4.53658 3.87369 4.53658 3.69062 4.35352C3.50772 4.17046 3.50767 3.87365 3.69062 3.69062Z" fill="currentColor"></path>
    <path d="M11.6453 3.69062C11.8283 3.50756 12.1255 3.50756 12.3086 3.69062C12.4915 3.87365 12.4915 4.17046 12.3086 4.35352C12.1255 4.53658 11.8283 4.53658 11.6453 4.35352C11.4624 4.17046 11.4624 3.87365 11.6453 3.69062Z" fill="currentColor"></path>
    <path d="M7.99961 1.97461C8.22052 1.97461 8.39961 2.1537 8.39961 2.37461V3.31211C8.39961 3.53302 8.22052 3.71211 7.99961 3.71211C7.7787 3.71211 7.59961 3.53302 7.59961 3.31211V2.37461C7.59961 2.1537 7.7787 1.97461 7.99961 1.97461Z" fill="currentColor"></path>
    <path fill-rule="evenodd" clip-rule="evenodd" d="M7.99961 0.0683594C12.3626 0.0683598 15.9309 3.63657 15.9309 7.99961C15.9309 12.3626 12.3626 15.9309 7.99961 15.9309C3.63657 15.9309 0.0683594 12.3626 0.0683594 7.99961C0.0683598 3.63657 3.63657 0.0683594 7.99961 0.0683594ZM7.99961 0.868359C4.0784 0.868359 0.86836 4.0784 0.868359 7.99961C0.868359 11.9208 4.0784 15.1309 7.99961 15.1309C11.9208 15.1309 15.1309 11.9208 15.1309 7.99961C15.1309 4.0784 11.9208 0.86836 7.99961 0.868359Z" fill="currentColor"></path>
  </symbol>
  <symbol fill="none" xmlns="http://www.w3.org/2000/svg" viewBox="0 0 18 18" id="ic_email">
    <path d="M13.875 0.757812H4.125C3.03135 0.759004 1.98283 1.19398 1.2095 1.96731C0.436171 2.74064 0.00119113 3.78916 0 4.88281L0 13.1328C0.00119113 14.2265 0.436171 15.275 1.2095 16.0483C1.98283 16.8216 3.03135 17.2566 4.125 17.2578H13.875C14.9687 17.2566 16.0172 16.8216 16.7905 16.0483C17.5638 15.275 17.9988 14.2265 18 13.1328V4.88281C17.9988 3.78916 17.5638 2.74064 16.7905 1.96731C16.0172 1.19398 14.9687 0.759004 13.875 0.757812ZM13.875 3.00781C14.3298 3.00933 14.7683 3.17772 15.1073 3.48106L10.2323 8.35606C9.90114 8.67231 9.46088 8.84878 9.003 8.84878C8.54512 8.84878 8.10486 8.67231 7.77375 8.35606L2.89875 3.48106C3.23614 3.17909 3.67222 3.01079 4.125 3.00781H13.875ZM13.875 15.0078H4.125C3.62772 15.0078 3.15081 14.8103 2.79917 14.4586C2.44754 14.107 2.25 13.6301 2.25 13.1328V6.02056L6.17925 9.94981C6.54957 10.3203 6.98925 10.6142 7.47318 10.8147C7.95711 11.0152 8.4758 11.1184 8.99963 11.1184C9.52345 11.1184 10.0421 11.0152 10.5261 10.8147C11.01 10.6142 11.4497 10.3203 11.82 9.94981L15.75 6.02056V13.1328C15.75 13.6301 15.5525 14.107 15.2008 14.4586C14.8492 14.8103 14.3723 15.0078 13.875 15.0078Z" fill="currentColor"></path>
  </symbol>
  <symbol fill="none" xmlns="http://www.w3.org/2000/svg" viewBox="0 0 40 40" id="ic_file">
    <path d="M22.3438 30.625C22.9909 30.625 23.5156 31.1497 23.5156 31.7969C23.5156 32.4441 22.9909 32.9688 22.3438 32.9688H12.9688C12.3216 32.9688 11.7969 32.4441 11.7969 31.7969C11.7969 31.1497 12.3216 30.625 12.9688 30.625H22.3438Z" fill="currentColor"></path>
    <path d="M27.0312 25.9375C27.6784 25.9375 28.2031 26.4622 28.2031 27.1094C28.2031 27.7566 27.6784 28.2812 27.0312 28.2812H12.9688C12.3216 28.2812 11.7969 27.7566 11.7969 27.1094C11.7969 26.4622 12.3216 25.9375 12.9688 25.9375H27.0312Z" fill="currentColor"></path>
    <path d="M27.0312 21.25C27.6784 21.25 28.2031 21.7747 28.2031 22.4219C28.2031 23.0691 27.6784 23.5938 27.0312 23.5938H12.9688C12.3216 23.5938 11.7969 23.0691 11.7969 22.4219C11.7969 21.7747 12.3216 21.25 12.9688 21.25H27.0312Z" fill="currentColor"></path>
    <path d="M27.0312 16.5625C27.6784 16.5625 28.2031 17.0872 28.2031 17.7344C28.2031 18.3816 27.6784 18.9062 27.0312 18.9062H12.9688C12.3216 18.9062 11.7969 18.3816 11.7969 17.7344C11.7969 17.0872 12.3216 16.5625 12.9688 16.5625H27.0312Z" fill="currentColor"></path>
    <path fill-rule="evenodd" clip-rule="evenodd" d="M24.6875 0C24.9983 0.000175658 25.2967 0.124054 25.5166 0.34375L34.8906 9.71777C35.0998 9.92691 35.2344 10.2273 35.2344 10.5469V36.4844C35.2344 38.4229 33.6573 40 31.7188 40H8.28125C6.34273 40 4.76562 38.4229 4.76562 36.4844V3.51562C4.76562 1.57711 6.34273 0 8.28125 0H24.6875ZM8.28125 2.34375C7.63508 2.34375 7.10938 2.86945 7.10938 3.51562V36.4844C7.10938 37.1305 7.63508 37.6562 8.28125 37.6562H31.7188C32.3649 37.6562 32.8906 37.1305 32.8906 36.4844V11.7188H27.0312C25.0927 11.7188 23.5156 10.1416 23.5156 8.20312V2.34375H8.28125ZM25.8594 8.20312C25.8594 8.8493 26.3851 9.375 27.0312 9.375H31.2334L25.8594 4.00098V8.20312Z" fill="currentColor"></path>
  </symbol>
  <symbol fill="none" xmlns="http://www.w3.org/2000/svg" viewBox="0 0 24 24" id="ic_location">
    <path d="M9.553 14.396C10.228 15.056 11.114 15.386 12 15.386C12.886 15.386 13.772 15.056 14.447 14.396L16.949 11.948C18.271 10.626 19 8.86805 19 6.99805C19 5.12805 18.271 3.37105 16.949 2.04805C15.628 0.726047 13.87 -0.00195312 12 -0.00195312C10.13 -0.00195312 8.372 0.726047 7.05 2.04805C4.321 4.77705 4.321 9.21805 7.058 11.955L9.553 14.395V14.396ZM8.464 3.46305C9.408 2.51905 10.664 1.99905 12 1.99905C13.336 1.99905 14.591 2.51905 15.535 3.46305C16.479 4.40705 17 5.66305 17 6.99905C17 8.33505 16.479 9.59005 15.543 10.527L13.049 12.967C12.471 13.531 11.529 13.531 10.951 12.967L8.464 10.535C6.515 8.58505 6.515 5.41205 8.464 3.46305ZM9 6.98905C9 5.33205 10.343 3.98905 12 3.98905C13.657 3.98905 15 5.33205 15 6.98905C15 8.64605 13.657 9.98905 12 9.98905C10.343 9.98905 9 8.64605 9 6.98905ZM24 16.766C24 17.118 23.815 17.443 23.515 17.623L13.654 23.54C13.144 23.846 12.572 23.999 12.001 23.999C11.43 23.999 10.857 23.846 10.348 23.54L0.485 17.624C0.184 17.443 0 17.118 0 16.767C0 16.416 0.185 16.09 0.485 15.91L4.714 13.373C5.189 13.088 5.803 13.242 6.086 13.716C6.37 14.19 6.217 14.804 5.743 15.088L2.943 16.768L11.376 21.828C11.761 22.058 12.239 22.058 12.624 21.828L21.057 16.768L18.257 15.088C17.783 14.804 17.63 14.19 17.914 13.716C18.198 13.242 18.811 13.088 19.286 13.373L23.515 15.91C23.816 16.091 24 16.415 24 16.766Z" fill="currentColor"></path>
  </symbol>
  <symbol fill="none" xmlns="http://www.w3.org/2000/svg" viewBox="0 0 18 18" id="ic_location2">
    <path d="M14.1706 13.0452L10.1937 17.0232C10.037 17.18 9.85092 17.3044 9.64612 17.3893C9.44131 17.4741 9.22179 17.5178 9.00009 17.5178C8.77839 17.5178 8.55887 17.4741 8.35406 17.3893C8.14925 17.3044 7.96318 17.18 7.80646 17.0232L3.82959 13.0452C3.15052 12.3662 2.61183 11.5601 2.24429 10.6729C1.87675 9.7857 1.68755 8.83481 1.6875 7.87451C1.68745 6.91421 1.87654 5.9633 2.24399 5.07607C2.61143 4.18885 3.15003 3.38269 3.82903 2.70361C4.50803 2.02454 5.31413 1.48585 6.20131 1.11831C7.0885 0.750773 8.03939 0.561576 8.99969 0.561523C9.95999 0.561471 10.9109 0.750565 11.7981 1.11801C12.6854 1.48545 13.4915 2.02405 14.1706 2.70305C14.8497 3.38209 15.3884 4.18826 15.756 5.07552C16.1235 5.96277 16.3127 6.91374 16.3127 7.87411C16.3127 8.83449 16.1235 9.78545 15.756 10.6727C15.3884 11.56 14.8497 12.3661 14.1706 13.0452ZM12.9781 3.89667C12.4557 3.37428 11.8355 2.95989 11.153 2.67717C10.4704 2.39445 9.73887 2.24893 9.00009 2.24893C8.26131 2.24893 7.52976 2.39445 6.84721 2.67717C6.16466 2.95989 5.54449 3.37428 5.02209 3.89667C4.49969 4.41907 4.0853 5.03925 3.80258 5.7218C3.51986 6.40434 3.37435 7.13589 3.37435 7.87468C3.37435 8.61346 3.51986 9.34501 3.80258 10.0276C4.0853 10.7101 4.49969 11.3303 5.02209 11.8527L9.00009 15.8284L12.9781 11.8527C13.5006 11.3303 13.915 10.7102 14.1978 10.0276C14.4806 9.34506 14.6261 8.61349 14.6261 7.87468C14.6261 7.13586 14.4806 6.40429 14.1978 5.72174C13.915 5.03919 13.5006 4.41902 12.9781 3.89667ZM9.00009 10.1247C8.70046 10.1315 8.40249 10.0783 8.12369 9.96833C7.84488 9.85837 7.59085 9.69381 7.37652 9.48432C7.16219 9.27483 6.99186 9.02463 6.87556 8.74841C6.75925 8.47219 6.6993 8.17552 6.69922 7.87581C6.69915 7.57611 6.75895 7.2794 6.87512 7.00312C6.99129 6.72685 7.16149 6.47656 7.37571 6.26697C7.58994 6.05737 7.84389 5.89269 8.12264 5.78258C8.40139 5.67248 8.69933 5.61917 8.99896 5.6258C9.58685 5.6388 10.1463 5.88143 10.5575 6.30174C10.9687 6.72206 11.1991 7.28666 11.1992 7.87469C11.1994 8.46271 10.9693 9.02743 10.5583 9.44795C10.1473 9.86847 9.58796 10.1114 9.00009 10.1247Z" fill="currentColor" stroke="currentColor" stroke-width="0.5"></path>
  </symbol>
  <symbol fill="none" xmlns="http://www.w3.org/2000/svg" viewBox="0 0 20 18" id="ic_messenger_tg">
    <path d="M17.542 1.14941C17.7423 1.08353 17.9569 1.07192 18.1631 1.11621C18.3691 1.16054 18.5594 1.25912 18.7148 1.40137C18.8702 1.54389 18.9848 1.72529 19.0469 1.92676C19.1089 2.12815 19.1165 2.34268 19.0684 2.54785L15.9053 15.9951C15.8109 16.3958 15.5217 16.7144 15.1318 16.8467C15.0086 16.8886 14.8792 16.91 14.749 16.9102H14.748C14.4787 16.91 14.2146 16.8181 13.999 16.6416L10.6641 13.9111L7.82227 16.04C7.6452 16.1726 7.43151 16.344 7.13086 16.2676C6.83297 16.1917 6.70112 15.9437 6.64844 15.6992L5.47852 10.2725L1.61133 8.58008C1.15739 8.38142 0.878213 7.93245 0.901367 7.4375C0.92465 6.94257 1.24429 6.52142 1.71484 6.36621L17.542 1.14941ZM2.2832 7.50195L5.99121 9.12402L14.1377 4.59863C14.2692 4.52557 14.423 4.50189 14.5703 4.53223C14.7176 4.56259 14.8495 4.64465 14.9414 4.76367C15.0331 4.88259 15.0791 5.03069 15.0713 5.18066C15.0634 5.33084 15.0014 5.47334 14.8975 5.58203L9.44141 11.2871L11.0791 12.6279H11.0801L14.707 15.5967L17.8154 2.38184L2.2832 7.50195ZM8.61621 13.2832L8.40039 14.0361L9.66113 13.0918L8.8584 12.4346L8.61621 13.2832ZM6.7373 10.1484L7.36816 13.0752L7.91309 11.1709L7.92285 11.1436C7.95195 11.0562 7.99998 10.9759 8.06348 10.9092L11.1191 7.71289L6.7373 10.1484Z" fill="currentColor" stroke="currentColor" stroke-width="0.2"></path>
  </symbol>
  <symbol fill="none" xmlns="http://www.w3.org/2000/svg" viewBox="0 0 20 20" id="ic_messenger_whatsapp">
    <path d="M16.4433 3.55667C14.7946 1.90788 12.603 1 10.2711 1H10.2703C9.11698 1.00014 7.99307 1.22342 6.93001 1.66386C5.86682 2.10426 4.91429 2.74104 4.09871 3.55667C2.45005 5.20529 1.54214 7.39735 1.54214 9.72891C1.54214 11.1193 1.87767 12.5012 2.51337 13.7323L1.04616 17.9239C0.942729 18.2196 1.01592 18.5409 1.23758 18.7624C1.39262 18.9176 1.59671 19 1.80648 19C1.89645 19 1.98736 18.9849 2.07606 18.9538L6.26764 17.4868C7.49881 18.1225 8.88059 18.458 10.2711 18.458C12.6026 18.458 14.7945 17.5499 16.4433 15.9013C18.092 14.2527 19 12.0606 19 9.72905C19 7.39735 18.0921 5.20529 16.4433 3.55667ZM15.6968 15.1548C14.2476 16.6042 12.3206 17.4022 10.2711 17.4022C9.01727 17.4022 7.77169 17.0921 6.66894 16.5051C6.46901 16.3989 6.23265 16.3806 6.02049 16.4549L2.21236 17.7876L3.54524 13.9795C3.61956 13.7671 3.60114 13.5307 3.49486 13.3309C2.90803 12.2284 2.59781 10.9829 2.59781 9.72891C2.59781 7.67941 3.39597 5.75239 4.84521 4.30318C6.29432 2.85407 8.22102 2.05592 10.2704 2.05564H10.2711C12.3207 2.05564 14.2476 2.85379 15.6968 4.30318C17.1462 5.75242 17.9444 7.67927 17.9444 9.72891C17.9444 11.7786 17.1462 13.7055 15.6968 15.1548Z" fill="currentColor" stroke="currentColor" stroke-width="0.5"></path>
    <path d="M6.78027 5.23047C7.22089 4.79002 7.93737 4.78991 8.37793 5.23047L9.56152 6.41406C10.0021 6.85467 10.0021 7.57114 9.56152 8.01172L9.17578 8.39648C9.74807 9.41861 10.5796 10.2499 11.6016 10.8223L11.9873 10.4375C12.4279 9.99707 13.1444 9.99717 13.585 10.4375L14.7686 11.6211C14.9819 11.8342 15.0995 12.1183 15.0996 12.4199C15.0996 12.7215 14.9819 13.0064 14.7686 13.2197L14.5977 13.3896L13.8223 14.166C13.515 14.4733 13.095 14.623 12.5996 14.623C12.1526 14.623 11.6418 14.5014 11.0869 14.2637C10.0734 13.8293 8.96492 13.0371 7.96387 12.0361C6.96279 11.0351 6.16982 9.92667 5.73535 8.91309C5.23751 7.75143 5.24571 6.76406 5.83301 6.17676L6.78027 5.23047ZM6.7207 7.06543C6.67305 7.11345 6.62174 7.23595 6.63281 7.4668C6.64375 7.69377 6.71446 8.00924 6.88965 8.41797C7.25978 9.2817 7.9558 10.2517 8.85156 11.1475C9.74729 12.0432 10.7174 12.7392 11.5811 13.1094C11.9899 13.2845 12.3053 13.3563 12.5322 13.3672C12.7638 13.3783 12.8868 13.3261 12.9346 13.2783L13.791 12.4199L12.7861 11.4141L12.3076 11.8936C12.0285 12.1728 11.6043 12.2406 11.2529 12.0615C9.81692 11.3292 8.67084 10.1821 7.93848 8.74609C7.75935 8.39488 7.82658 7.97148 8.10547 7.69238L8.58496 7.21289L7.5791 6.20703L6.7207 7.06543Z" fill="currentColor" stroke="currentColor" stroke-width="0.2"></path>
  </symbol>
  <symbol fill="none" xmlns="http://www.w3.org/2000/svg" viewBox="0 0 25 24" id="ic_minus">
    <path d="M19.9082 13.7266C11.7612 13.7266 14.622 13.7266 5.46023 13.7266C4.50823 13.7266 3.74023 12.9586 3.74023 12.0066C3.74023 11.0546 4.50823 10.2866 5.46023 10.2866H19.9082C20.8602 10.2866 21.6282 11.0546 21.6282 12.0066C21.6282 12.9586 20.8602 13.7266 19.9082 13.7266Z" fill="currentColor"></path>
  </symbol>
  <symbol fill="none" xmlns="http://www.w3.org/2000/svg" viewBox="0 0 18 18" id="ic_phone">
    <path d="M13.1256 18.0078C7.0139 18.1796 -3.8056 7.34806 1.39715 1.46131C1.4159 1.44331 2.21615 0.745813 2.21615 0.745813C2.7184 0.28152 3.37879 0.0262167 4.06274 0.0319302C4.74669 0.0376438 5.40273 0.303944 5.89715 0.776563L7.51115 2.51506C7.98657 3.01192 8.2495 3.6746 8.24403 4.36225C8.23857 5.0499 7.96516 5.70832 7.4819 6.19756L7.1909 6.49306C8.05755 8.41223 9.59086 9.95193 11.5064 10.8266L11.8146 10.5266C12.3146 10.0504 12.9786 9.78478 13.669 9.78478C14.3595 9.78478 15.0234 10.0504 15.5234 10.5266L17.2011 12.0828C17.6981 12.5683 17.9834 13.2303 17.9949 13.9249C18.0064 14.6195 17.7432 15.2906 17.2626 15.7923C17.2626 15.7923 16.5651 16.5918 16.5471 16.6106C16.0977 17.0583 15.5638 17.4124 14.9765 17.6523C14.3892 17.8921 13.7601 18.013 13.1256 18.0078ZM2.96315 3.08281C-0.681101 7.59631 10.9836 18.5876 14.9294 15.0453C14.9294 15.0453 15.6224 14.2511 15.6411 14.2331C15.7114 14.1627 15.7509 14.0674 15.7509 13.9679C15.7509 13.8685 15.7114 13.7731 15.6411 13.7028L13.9626 12.1473C13.7376 11.9598 13.6109 11.9576 13.4024 12.1173L12.5504 12.9558C12.3967 13.107 12.2028 13.2108 11.9918 13.255C11.7808 13.2991 11.5615 13.2817 11.3601 13.2048C9.86362 12.6479 8.50431 11.7758 7.37437 10.6475C6.24443 9.51927 5.37027 8.16126 4.81115 6.66556C4.72977 6.46253 4.70934 6.24018 4.75237 6.02572C4.79539 5.81126 4.9 5.61399 5.0534 5.45806L5.8844 4.61356C5.92224 4.57995 5.95265 4.5388 5.97369 4.49276C5.99472 4.44672 6.00591 4.39679 6.00655 4.34618C6.00718 4.29556 5.99725 4.24537 5.97738 4.19882C5.95751 4.15226 5.92814 4.11037 5.89115 4.07581L4.27565 2.33731C4.20417 2.27758 4.11256 2.24741 4.01957 2.25299C3.92658 2.25856 3.83923 2.29946 3.7754 2.36731C3.7574 2.38606 2.96315 3.08281 2.96315 3.08281ZM18.0006 7.13281C17.9985 5.24382 17.2471 3.43281 15.9114 2.09709C14.5756 0.761365 12.7646 0.00999597 10.8756 0.0078125C10.5773 0.0078125 10.2911 0.126339 10.0802 0.337317C9.86917 0.548296 9.75065 0.834444 9.75065 1.13281C9.75065 1.43118 9.86917 1.71733 10.0802 1.92831C10.2911 2.13929 10.5773 2.25781 10.8756 2.25781C12.1681 2.2594 13.4071 2.77352 14.321 3.68742C15.2349 4.60132 15.7491 5.84037 15.7506 7.13281C15.7506 7.43118 15.8692 7.71733 16.0802 7.92831C16.2911 8.13929 16.5773 8.25781 16.8756 8.25781C17.174 8.25781 17.4602 8.13929 17.6711 7.92831C17.8821 7.71733 18.0006 7.43118 18.0006 7.13281ZM14.2506 7.13281C14.2497 6.23801 13.8938 5.38014 13.261 4.74742C12.6283 4.1147 11.7704 3.75881 10.8756 3.75781C10.5773 3.75781 10.2911 3.87634 10.0802 4.08732C9.86917 4.2983 9.75065 4.58444 9.75065 4.88281C9.75065 5.18118 9.86917 5.46733 10.0802 5.67831C10.2911 5.88929 10.5773 6.00781 10.8756 6.00781C11.174 6.00781 11.4602 6.12634 11.6711 6.33732C11.8821 6.5483 12.0006 6.83444 12.0006 7.13281C12.0006 7.43118 12.1192 7.71733 12.3302 7.92831C12.5411 8.13929 12.8273 8.25781 13.1256 8.25781C13.424 8.25781 13.7102 8.13929 13.9211 7.92831C14.1321 7.71733 14.2506 7.43118 14.2506 7.13281Z" fill="currentColor"></path>
  </symbol>
  <symbol fill="none" xmlns="http://www.w3.org/2000/svg" viewBox="0 0 25 24" id="ic_plus">
    <path d="M19.9082 10.2748H14.4042V4.77078C14.4042 3.81878 13.6362 3.05078 12.6842 3.05078C11.7322 3.05078 10.9642 3.81878 10.9642 4.77078V10.2748H5.46023C4.50823 10.2748 3.74023 11.0428 3.74023 11.9948C3.74023 12.9468 4.50823 13.7148 5.46023 13.7148H10.9642V19.2188C10.9642 20.1708 11.7322 20.9388 12.6842 20.9388C13.6362 20.9388 14.4042 20.1708 14.4042 19.2188V13.7148H19.9082C20.8602 13.7148 21.6282 12.9468 21.6282 11.9948C21.6282 11.0428 20.8602 10.2748 19.9082 10.2748Z" fill="currentColor"></path>
  </symbol>
  <symbol fill="none" xmlns="http://www.w3.org/2000/svg" viewBox="0 0 36 36" id="ic_rutube">
    <rect y="-0.00390625" width="36" height="36" rx="18" fill="var(--icon_bg)"></rect>
    <path d="M20.1175 19.0814H11.6086V15.6934H20.1175C20.6146 15.6934 20.9602 15.7806 21.1336 15.9328C21.307 16.085 21.4145 16.3674 21.4145 16.7798V17.9963C21.4145 18.4308 21.307 18.7132 21.1336 18.8654C20.9602 19.0176 20.6146 19.0827 20.1175 19.0827V19.0814ZM20.7013 12.4994H8V26.9878H11.6086V22.2741H18.2589L21.4145 26.9878H25.4554L21.9762 22.252C23.2589 22.0608 23.8349 21.6653 24.3099 21.0134C24.7849 20.3616 25.0231 19.3195 25.0231 17.9286V16.8423C25.0231 16.0174 24.9363 15.3656 24.7849 14.866C24.6335 14.3664 24.3746 13.9318 24.007 13.5415C23.6187 13.172 23.1864 12.9118 22.6674 12.7374C22.1483 12.5852 21.4999 12.498 20.7013 12.498V12.4994Z" fill="currentColor"></path>
    <path d="M28.2276 12.4985C29.7588 12.4985 31 11.265 31 9.74338C31 8.22178 29.7588 6.98828 28.2276 6.98828C26.6965 6.98828 25.4553 8.22178 25.4553 9.74338C25.4553 11.265 26.6965 12.4985 28.2276 12.4985Z" fill="currentColor"></path>
  </symbol>
  <symbol fill="none" xmlns="http://www.w3.org/2000/svg" viewBox="0 0 15 16" id="ic_search">
    <path d="M14.6666 13.0466L11.5746 9.95474C12.3198 8.8791 12.6925 7.67997 12.6925 6.358C12.6925 5.49863 12.5257 4.67675 12.192 3.89253C11.8586 3.10818 11.4078 2.43213 10.8399 1.86422C10.272 1.29631 9.59603 0.84554 8.81184 0.512062C8.0274 0.178489 7.20558 0.0117188 6.34621 0.0117188C5.48691 0.0117188 4.66503 0.178489 3.88081 0.512062C3.09646 0.84554 2.42041 1.29631 1.8525 1.86422C1.28453 2.43213 0.833821 3.10831 0.500311 3.89253C0.16677 4.67684 0 5.49863 0 6.358C0 7.2173 0.16677 8.0389 0.500311 8.82334C0.833789 9.60756 1.28453 10.2835 1.8525 10.8514C2.42041 11.4195 3.09659 11.8701 3.88081 12.2038C4.66512 12.5373 5.48691 12.704 6.34621 12.704C7.66848 12.704 8.86741 12.3312 9.94311 11.5862L13.0351 14.669C13.2514 14.8973 13.5215 15.0116 13.8463 15.0116C14.1588 15.0116 14.4293 14.8974 14.6575 14.669C14.8858 14.4407 15 14.1703 15 13.8578C15.0001 13.5395 14.889 13.2689 14.6666 13.0466ZM9.19931 9.21078C8.40906 10.0012 7.4581 10.3963 6.34621 10.3963C5.23452 10.3963 4.28356 10.0011 3.49325 9.21078C2.70293 8.42053 2.30779 7.46969 2.30779 6.35781C2.30779 5.24611 2.70303 4.29499 3.49325 3.50484C4.2834 2.71449 5.23452 2.31938 6.34621 2.31938C7.45798 2.31938 8.40893 2.71465 9.19931 3.50484C9.98969 4.29499 10.3848 5.24611 10.3848 6.35781C10.3848 7.46969 9.98956 8.42053 9.19931 9.21078Z" fill="currentColor"></path>
  </symbol>
  <symbol fill="none" xmlns="http://www.w3.org/2000/svg" viewBox="0 0 36 36" id="ic_tg">
    <path d="M18 35.9961C27.9411 35.9961 36 27.9372 36 17.9961C36 8.05497 27.9411 -0.00390625 18 -0.00390625C8.05887 -0.00390625 0 8.05497 0 17.9961C0 27.9372 8.05887 35.9961 18 35.9961Z" fill="var(--icon_bg)"></path>
    <path d="M8.23738 17.6054L25.5924 10.9139C26.3979 10.6229 27.1014 11.1104 26.8404 12.3284L26.8419 12.3269L23.8869 26.2484C23.6679 27.2354 23.0814 27.4754 22.2609 27.0104L17.7609 23.6939L15.5904 25.7849C15.3504 26.0249 15.1479 26.2274 14.6829 26.2274L15.0024 21.6479L23.3424 14.1134C23.7054 13.7939 23.2614 13.6139 22.7829 13.9319L12.4764 20.4209L8.03338 19.0349C7.06888 18.7289 7.04788 18.0704 8.23738 17.6054Z" fill="currentColor"></path>
  </symbol>
  <symbol fill="none" xmlns="http://www.w3.org/2000/svg" viewBox="0 0 21 24" id="ic_video_play">
    <path d="M20 10.268C21.3333 11.0378 21.3333 12.9623 20 13.7321L3.5 23.2583C2.16666 24.0281 0.500001 23.0659 0.500001 21.5263L0.500002 2.47372C0.500002 0.934117 2.16667 -0.0281314 3.5 0.741669L20 10.268Z" fill="currentColor"></path>
  </symbol>
  <symbol fill="none" xmlns="http://www.w3.org/2000/svg" viewBox="0 0 36 36" id="ic_vk">
    <path d="M18 35.9961C27.9411 35.9961 36 27.9372 36 17.9961C36 8.05497 27.9411 -0.00390625 18 -0.00390625C8.05888 -0.00390625 0 8.05497 0 17.9961C0 27.9372 8.05888 35.9961 18 35.9961Z" fill="var(--icon_bg)"></path>
    <path d="M26.3038 23.1407C25.8822 23.1999 23.8335 23.1407 23.7269 23.1407C23.1972 23.1461 22.6868 22.9427 22.3059 22.5746C21.8724 22.1578 21.4816 21.6983 21.0672 21.2649C20.9413 21.1328 20.806 21.0101 20.6622 20.8978C20.3235 20.6396 19.9895 20.6988 19.8309 21.0967C19.7066 21.528 19.621 21.9695 19.5751 22.416C19.5677 22.604 19.486 22.7815 19.3479 22.9094C19.2098 23.0372 19.0266 23.1051 18.8385 23.0981C18.559 23.1123 18.2795 23.1194 18.0024 23.1123C16.9944 23.107 16.0019 22.8636 15.1059 22.4017C14.1385 21.8612 13.2954 21.1237 12.6309 20.237C11.5676 18.8331 10.6488 17.3254 9.88823 15.737C9.84796 15.6565 9.0498 13.9583 9.03086 13.8802C8.98137 13.7689 8.97665 13.6428 9.01766 13.5282C9.05868 13.4135 9.14229 13.319 9.25112 13.2644C9.39323 13.2099 12.0245 13.2644 12.0672 13.2644C12.2631 13.2625 12.4545 13.3233 12.6134 13.4379C12.7724 13.5526 12.8905 13.715 12.9506 13.9015C13.4372 15.1421 14.1018 16.3054 14.9235 17.3546C15.0381 17.4961 15.173 17.6198 15.3238 17.7217C15.3626 17.7592 15.4108 17.7857 15.4633 17.7984C15.5158 17.811 15.5707 17.8094 15.6224 17.7937C15.6741 17.778 15.7206 17.7488 15.7572 17.7091C15.7938 17.6694 15.8192 17.6206 15.8306 17.5678C15.9347 17.2254 15.9959 16.8713 16.013 16.5138C16.0272 15.8033 16.013 15.3296 15.9727 14.6191C15.987 14.377 15.9053 14.139 15.7452 13.9567C15.5851 13.7745 15.3597 13.6627 15.1177 13.6457C14.9093 13.6102 14.8809 13.4396 15.0253 13.2691C15.3024 12.9162 15.6861 12.8594 16.103 12.8381C16.733 12.8025 17.3653 12.8381 17.9977 12.8381H18.1351C18.4127 12.8374 18.6897 12.8651 18.9616 12.9209C19.1207 12.9535 19.2649 13.0366 19.3729 13.1578C19.4809 13.279 19.5468 13.4319 19.5609 13.5936C19.5928 13.7725 19.6071 13.9542 19.6035 14.1359C19.5869 14.9104 19.549 15.6849 19.5395 16.4617C19.5339 16.7686 19.5617 17.0751 19.6224 17.3759C19.7148 17.7881 19.9966 17.8923 20.2856 17.5915C20.6457 17.205 20.9758 16.7917 21.2732 16.3552C21.808 15.5603 22.2483 14.7059 22.5853 13.8091C22.7677 13.3496 22.9074 13.2478 23.4024 13.2478H26.1948C26.3614 13.245 26.5275 13.2674 26.6874 13.3141C26.7439 13.3292 26.7966 13.3557 26.8424 13.3919C26.8882 13.4282 26.926 13.4736 26.9536 13.5251C26.9811 13.5766 26.9978 13.6332 27.0025 13.6915C27.0073 13.7497 27 13.8083 26.9811 13.8636C26.8179 14.4577 26.5376 15.0133 26.1569 15.4978C25.5885 16.3007 24.9916 17.0846 24.409 17.8662C24.3353 17.9685 24.2681 18.0753 24.2077 18.186C23.9898 18.5791 24.0064 18.8017 24.3214 19.1333C24.8282 19.6544 25.3706 20.1446 25.8585 20.6799C26.2183 21.0699 26.5432 21.4908 26.8295 21.9375C27.1895 22.5154 26.9693 23.0459 26.3038 23.1407Z" fill="currentColor"></path>
  </symbol>
</svg>